<?xml version="1.0" encoding="UTF-8" standalone="no"?>
<!DOCTYPE svg PUBLIC "-//W3C//DTD SVG 1.1//EN"
 "http://www.w3.org/Graphics/SVG/1.1/DTD/svg11.dtd">
<!-- Generated by graphviz version 2.44.1 (20200629.0846)
 -->
<!-- Title: dependencies Pages: 1 -->
<svg width="504pt" height="211pt"
 viewBox="0.00 0.00 504.00 211.00" xmlns="http://www.w3.org/2000/svg" xmlns:xlink="http://www.w3.org/1999/xlink">
<g id="graph0" class="graph" transform="scale(1 1) rotate(0) translate(4 207)">
<title>dependencies</title>
<polygon fill="white" stroke="transparent" points="-4,4 -4,-207 500,-207 500,4 -4,4"/>
<text text-anchor="start" x="227.01" y="-42.4" font-family="sans-serif" font-weight="bold" font-size="14.00">Legend</text>
<polygon fill="#ffffb3" stroke="transparent" points="14,-10 14,-30 34,-30 34,-10 14,-10"/>
<text text-anchor="start" x="37.63" y="-15.4" font-family="sans-serif" font-size="14.00"> &#160;Declarations</text>
<polygon fill="#8dd3c7" stroke="transparent" points="127,-10 127,-30 147,-30 147,-10 127,-10"/>
<text text-anchor="start" x="150.73" y="-15.4" font-family="sans-serif" font-size="14.00"> &#160;Module</text>
<polygon fill="#80b1d3" stroke="transparent" points="213,-10 213,-30 233,-30 233,-10 213,-10"/>
<text text-anchor="start" x="236.78" y="-15.4" font-family="sans-serif" font-size="14.00"> &#160;Bootstrap</text>
<polygon fill="#fdb462" stroke="transparent" points="310,-10 310,-30 330,-30 330,-10 310,-10"/>
<text text-anchor="start" x="333.67" y="-15.4" font-family="sans-serif" font-size="14.00"> &#160;Providers</text>
<polygon fill="#fb8072" stroke="transparent" points="406,-10 406,-30 426,-30 426,-10 406,-10"/>
<text text-anchor="start" x="429.73" y="-15.4" font-family="sans-serif" font-size="14.00"> &#160;Exports</text>
<g id="clust1" class="cluster">
<title>cluster_TravelPageModule</title>
<polygon fill="none" stroke="black" stroke-dasharray="1,5" points="96,-70 96,-195 400,-195 400,-70 96,-70"/>
</g>
<g id="clust4" class="cluster">
<title>cluster_TravelPageModule_imports</title>
<polygon fill="none" stroke="black" points="208,-78 208,-130 392,-130 392,-78 208,-78"/>
</g>
<g id="clust2" class="cluster">
<title>cluster_TravelPageModule_declarations</title>
<polygon fill="none" stroke="black" points="104,-78 104,-130 200,-130 200,-78 104,-78"/>
</g>
<!-- TravelPage -->
<g id="node1" class="node">
<title>TravelPage</title>
<polygon fill="#ffffb3" stroke="black" points="191.75,-122 112.25,-122 112.25,-86 191.75,-86 191.75,-122"/>
<text text-anchor="middle" x="152" y="-99.8" font-family="Times,serif" font-size="14.00">TravelPage</text>
</g>
<!-- TravelPageModule -->
<g id="node2" class="node">
<title>TravelPageModule</title>
<polygon fill="#8dd3c7" stroke="black" points="294.79,-187 291.79,-191 270.79,-191 267.79,-187 171.21,-187 171.21,-151 294.79,-151 294.79,-187"/>
<text text-anchor="middle" x="233" y="-164.8" font-family="Times,serif" font-size="14.00">TravelPageModule</text>
</g>
<!-- TravelPage&#45;&gt;TravelPageModule -->
<g id="edge1" class="edge">
<title>TravelPage&#45;&gt;TravelPageModule</title>
<path fill="none" stroke="black" d="M181.61,-122.11C181.61,-122.11 181.61,-140.99 181.61,-140.99"/>
<polygon fill="black" stroke="black" points="178.11,-140.99 181.61,-150.99 185.11,-140.99 178.11,-140.99"/>
</g>
<!-- TravelPageRoutingModule -->
<g id="node3" class="node">
<title>TravelPageRoutingModule</title>
<polygon fill="#8dd3c7" stroke="black" points="384.41,-122 381.41,-126 360.41,-126 357.41,-122 215.59,-122 215.59,-86 384.41,-86 384.41,-122"/>
<text text-anchor="middle" x="300" y="-99.8" font-family="Times,serif" font-size="14.00">TravelPageRoutingModule</text>
</g>
<!-- TravelPageRoutingModule&#45;&gt;TravelPageModule -->
<g id="edge2" class="edge">
<title>TravelPageRoutingModule&#45;&gt;TravelPageModule</title>
<path fill="none" stroke="black" d="M255.22,-122.11C255.22,-122.11 255.22,-140.99 255.22,-140.99"/>
<polygon fill="black" stroke="black" points="251.72,-140.99 255.22,-150.99 258.72,-140.99 251.72,-140.99"/>
</g>
</g>
</svg>
