<?xml version="1.0" encoding="UTF-8" standalone="no"?>
<!DOCTYPE svg PUBLIC "-//W3C//DTD SVG 1.1//EN"
 "http://www.w3.org/Graphics/SVG/1.1/DTD/svg11.dtd">
<!-- Generated by graphviz version 2.47.0 (20210316.0004)
 -->
<!-- Title: dependencies Pages: 1 -->
<svg width="542pt" height="211pt"
 viewBox="0.00 0.00 542.00 211.00" xmlns="http://www.w3.org/2000/svg" xmlns:xlink="http://www.w3.org/1999/xlink">
<g id="graph0" class="graph" transform="scale(1 1) rotate(0) translate(4 207)">
<title>dependencies</title>
<polygon fill="white" stroke="transparent" points="-4,4 -4,-207 538,-207 538,4 -4,4"/>
<text text-anchor="start" x="246.01" y="-42.4" font-family="sans-serif" font-weight="bold" font-size="14.00">Legend</text>
<polygon fill="#ffffb3" stroke="transparent" points="33,-10 33,-30 53,-30 53,-10 33,-10"/>
<text text-anchor="start" x="56.63" y="-15.4" font-family="sans-serif" font-size="14.00"> &#160;Declarations</text>
<polygon fill="#8dd3c7" stroke="transparent" points="146,-10 146,-30 166,-30 166,-10 146,-10"/>
<text text-anchor="start" x="169.73" y="-15.4" font-family="sans-serif" font-size="14.00"> &#160;Module</text>
<polygon fill="#80b1d3" stroke="transparent" points="232,-10 232,-30 252,-30 252,-10 232,-10"/>
<text text-anchor="start" x="255.78" y="-15.4" font-family="sans-serif" font-size="14.00"> &#160;Bootstrap</text>
<polygon fill="#fdb462" stroke="transparent" points="329,-10 329,-30 349,-30 349,-10 329,-10"/>
<text text-anchor="start" x="352.67" y="-15.4" font-family="sans-serif" font-size="14.00"> &#160;Providers</text>
<polygon fill="#fb8072" stroke="transparent" points="425,-10 425,-30 445,-30 445,-10 425,-10"/>
<text text-anchor="start" x="448.73" y="-15.4" font-family="sans-serif" font-size="14.00"> &#160;Exports</text>
<g id="clust1" class="cluster">
<title>cluster_HomeAffairsPageModule</title>
<polygon fill="none" stroke="black" stroke-dasharray="1,5" points="8,-70 8,-195 526,-195 526,-70 8,-70"/>
</g>
<g id="clust4" class="cluster">
<title>cluster_HomeAffairsPageModule_imports</title>
<polygon fill="none" stroke="black" points="158,-78 158,-130 518,-130 518,-78 158,-78"/>
</g>
<g id="clust2" class="cluster">
<title>cluster_HomeAffairsPageModule_declarations</title>
<polygon fill="none" stroke="black" points="16,-78 16,-130 150,-130 150,-78 16,-78"/>
</g>
<!-- HomeAffairsPage -->
<g id="node1" class="node">
<title>HomeAffairsPage</title>
<polygon fill="#ffffb3" stroke="black" points="141.56,-122 24.44,-122 24.44,-86 141.56,-86 141.56,-122"/>
<text text-anchor="middle" x="83" y="-99.8" font-family="Times,serif" font-size="14.00">HomeAffairsPage</text>
</g>
<!-- HomeAffairsPageModule -->
<g id="node2" class="node">
<title>HomeAffairsPageModule</title>
<polygon fill="#8dd3c7" stroke="black" points="349.11,-187 346.11,-191 325.11,-191 322.11,-187 188.89,-187 188.89,-151 349.11,-151 349.11,-187"/>
<text text-anchor="middle" x="269" y="-164.8" font-family="Times,serif" font-size="14.00">HomeAffairsPageModule</text>
</g>
<!-- HomeAffairsPage&#45;&gt;HomeAffairsPageModule -->
<g id="edge1" class="edge">
<title>HomeAffairsPage&#45;&gt;HomeAffairsPageModule</title>
<path fill="none" stroke="black" d="M83,-122.11C83,-141.34 83,-169 83,-169 83,-169 178.77,-169 178.77,-169"/>
<polygon fill="black" stroke="black" points="178.77,-172.5 188.77,-169 178.77,-165.5 178.77,-172.5"/>
</g>
<!-- GuidePageModule -->
<g id="node3" class="node">
<title>GuidePageModule</title>
<polygon fill="#8dd3c7" stroke="black" points="510.47,-122 507.47,-126 486.47,-126 483.47,-122 389.53,-122 389.53,-86 510.47,-86 510.47,-122"/>
<text text-anchor="middle" x="450" y="-99.8" font-family="Times,serif" font-size="14.00">GuidePageModule</text>
</g>
<!-- GuidePageModule&#45;&gt;HomeAffairsPageModule -->
<g id="edge2" class="edge">
<title>GuidePageModule&#45;&gt;HomeAffairsPageModule</title>
<path fill="none" stroke="black" d="M450,-122.11C450,-141.34 450,-169 450,-169 450,-169 359.18,-169 359.18,-169"/>
<polygon fill="black" stroke="black" points="359.18,-165.5 349.18,-169 359.18,-172.5 359.18,-165.5"/>
</g>
<!-- HomeAffairsPageRoutingModule -->
<g id="node4" class="node">
<title>HomeAffairsPageRoutingModule</title>
<polygon fill="#8dd3c7" stroke="black" points="371.73,-122 368.73,-126 347.73,-126 344.73,-122 166.27,-122 166.27,-86 371.73,-86 371.73,-122"/>
<text text-anchor="middle" x="269" y="-99.8" font-family="Times,serif" font-size="14.00">HomeAffairsPageRoutingModule</text>
</g>
<!-- HomeAffairsPageRoutingModule&#45;&gt;HomeAffairsPageModule -->
<g id="edge3" class="edge">
<title>HomeAffairsPageRoutingModule&#45;&gt;HomeAffairsPageModule</title>
<path fill="none" stroke="black" d="M269,-122.11C269,-122.11 269,-140.99 269,-140.99"/>
<polygon fill="black" stroke="black" points="265.5,-140.99 269,-150.99 272.5,-140.99 265.5,-140.99"/>
</g>
</g>
</svg>
