<?xml version="1.0" encoding="UTF-8" standalone="no"?>
<!DOCTYPE svg PUBLIC "-//W3C//DTD SVG 1.1//EN"
 "http://www.w3.org/Graphics/SVG/1.1/DTD/svg11.dtd">
<!-- Generated by graphviz version 2.46.1 (20210213.1702)
 -->
<!-- Title: dependencies Pages: 1 -->
<svg width="504pt" height="211pt"
 viewBox="0.00 0.00 504.00 211.00" xmlns="http://www.w3.org/2000/svg" xmlns:xlink="http://www.w3.org/1999/xlink">
<g id="graph0" class="graph" transform="scale(1 1) rotate(0) translate(4 207)">
<title>dependencies</title>
<polygon fill="white" stroke="transparent" points="-4,4 -4,-207 500,-207 500,4 -4,4"/>
<text text-anchor="start" x="227.01" y="-42.4" font-family="sans-serif" font-weight="bold" font-size="14.00">Legend</text>
<polygon fill="#ffffb3" stroke="transparent" points="14,-10 14,-30 34,-30 34,-10 14,-10"/>
<text text-anchor="start" x="37.63" y="-15.4" font-family="sans-serif" font-size="14.00"> &#160;Declarations</text>
<polygon fill="#8dd3c7" stroke="transparent" points="127,-10 127,-30 147,-30 147,-10 127,-10"/>
<text text-anchor="start" x="150.73" y="-15.4" font-family="sans-serif" font-size="14.00"> &#160;Module</text>
<polygon fill="#80b1d3" stroke="transparent" points="213,-10 213,-30 233,-30 233,-10 213,-10"/>
<text text-anchor="start" x="236.78" y="-15.4" font-family="sans-serif" font-size="14.00"> &#160;Bootstrap</text>
<polygon fill="#fdb462" stroke="transparent" points="310,-10 310,-30 330,-30 330,-10 310,-10"/>
<text text-anchor="start" x="333.67" y="-15.4" font-family="sans-serif" font-size="14.00"> &#160;Providers</text>
<polygon fill="#fb8072" stroke="transparent" points="406,-10 406,-30 426,-30 426,-10 406,-10"/>
<text text-anchor="start" x="429.73" y="-15.4" font-family="sans-serif" font-size="14.00"> &#160;Exports</text>
<g id="clust1" class="cluster">
<title>cluster_TravelPageModule</title>
<polygon fill="none" stroke="black" stroke-dasharray="1,5" points="96,-70 96,-195 400,-195 400,-70 96,-70"/>
</g>
<g id="clust2" class="cluster">
<title>cluster_TravelPageModule_declarations</title>
<polygon fill="none" stroke="black" points="296,-78 296,-130 392,-130 392,-78 296,-78"/>
</g>
<g id="clust4" class="cluster">
<title>cluster_TravelPageModule_imports</title>
<polygon fill="none" stroke="black" points="104,-78 104,-130 288,-130 288,-78 104,-78"/>
</g>
<!-- TravelPage -->
<g id="node1" class="node">
<title>TravelPage</title>
<polygon fill="#ffffb3" stroke="black" points="383.75,-122 304.25,-122 304.25,-86 383.75,-86 383.75,-122"/>
<text text-anchor="middle" x="344" y="-99.8" font-family="Times,serif" font-size="14.00">TravelPage</text>
</g>
<!-- TravelPageModule -->
<g id="node2" class="node">
<title>TravelPageModule</title>
<polygon fill="#8dd3c7" stroke="black" points="324.79,-187 321.79,-191 300.79,-191 297.79,-187 201.21,-187 201.21,-151 324.79,-151 324.79,-187"/>
<text text-anchor="middle" x="263" y="-164.8" font-family="Times,serif" font-size="14.00">TravelPageModule</text>
</g>
<!-- TravelPage&#45;&gt;TravelPageModule -->
<g id="edge1" class="edge">
<title>TravelPage&#45;&gt;TravelPageModule</title>
<path fill="none" stroke="black" d="M314.39,-122.11C314.39,-122.11 314.39,-140.99 314.39,-140.99"/>
<polygon fill="black" stroke="black" points="310.89,-140.99 314.39,-150.99 317.89,-140.99 310.89,-140.99"/>
</g>
<!-- TravelPageRoutingModule -->
<g id="node3" class="node">
<title>TravelPageRoutingModule</title>
<polygon fill="#8dd3c7" stroke="black" points="280.41,-122 277.41,-126 256.41,-126 253.41,-122 111.59,-122 111.59,-86 280.41,-86 280.41,-122"/>
<text text-anchor="middle" x="196" y="-99.8" font-family="Times,serif" font-size="14.00">TravelPageRoutingModule</text>
</g>
<!-- TravelPageRoutingModule&#45;&gt;TravelPageModule -->
<g id="edge2" class="edge">
<title>TravelPageRoutingModule&#45;&gt;TravelPageModule</title>
<path fill="none" stroke="black" d="M240.78,-122.11C240.78,-122.11 240.78,-140.99 240.78,-140.99"/>
<polygon fill="black" stroke="black" points="237.28,-140.99 240.78,-150.99 244.28,-140.99 237.28,-140.99"/>
</g>
</g>
</svg>
