<?xml version="1.0" encoding="UTF-8" standalone="no"?>
<!DOCTYPE svg PUBLIC "-//W3C//DTD SVG 1.1//EN"
 "http://www.w3.org/Graphics/SVG/1.1/DTD/svg11.dtd">
<!-- Generated by graphviz version 2.46.1 (20210213.1702)
 -->
<!-- Title: dependencies Pages: 1 -->
<svg width="504pt" height="211pt"
 viewBox="0.00 0.00 504.00 211.00" xmlns="http://www.w3.org/2000/svg" xmlns:xlink="http://www.w3.org/1999/xlink">
<g id="graph0" class="graph" transform="scale(1 1) rotate(0) translate(4 207)">
<title>dependencies</title>
<polygon fill="white" stroke="transparent" points="-4,4 -4,-207 500,-207 500,4 -4,4"/>
<text text-anchor="start" x="227.01" y="-42.4" font-family="sans-serif" font-weight="bold" font-size="14.00">Legend</text>
<polygon fill="#ffffb3" stroke="transparent" points="14,-10 14,-30 34,-30 34,-10 14,-10"/>
<text text-anchor="start" x="37.63" y="-15.4" font-family="sans-serif" font-size="14.00"> &#160;Declarations</text>
<polygon fill="#8dd3c7" stroke="transparent" points="127,-10 127,-30 147,-30 147,-10 127,-10"/>
<text text-anchor="start" x="150.73" y="-15.4" font-family="sans-serif" font-size="14.00"> &#160;Module</text>
<polygon fill="#80b1d3" stroke="transparent" points="213,-10 213,-30 233,-30 233,-10 213,-10"/>
<text text-anchor="start" x="236.78" y="-15.4" font-family="sans-serif" font-size="14.00"> &#160;Bootstrap</text>
<polygon fill="#fdb462" stroke="transparent" points="310,-10 310,-30 330,-30 330,-10 310,-10"/>
<text text-anchor="start" x="333.67" y="-15.4" font-family="sans-serif" font-size="14.00"> &#160;Providers</text>
<polygon fill="#fb8072" stroke="transparent" points="406,-10 406,-30 426,-30 426,-10 406,-10"/>
<text text-anchor="start" x="429.73" y="-15.4" font-family="sans-serif" font-size="14.00"> &#160;Exports</text>
<g id="clust1" class="cluster">
<title>cluster_HealthcarePageModule</title>
<polygon fill="none" stroke="black" stroke-dasharray="1,5" points="72,-70 72,-195 424,-195 424,-70 72,-70"/>
</g>
<g id="clust4" class="cluster">
<title>cluster_HealthcarePageModule_imports</title>
<polygon fill="none" stroke="black" points="208,-78 208,-130 416,-130 416,-78 208,-78"/>
</g>
<g id="clust2" class="cluster">
<title>cluster_HealthcarePageModule_declarations</title>
<polygon fill="none" stroke="black" points="80,-78 80,-130 200,-130 200,-78 80,-78"/>
</g>
<!-- HealthcarePage -->
<g id="node1" class="node">
<title>HealthcarePage</title>
<polygon fill="#ffffb3" stroke="black" points="191.83,-122 88.17,-122 88.17,-86 191.83,-86 191.83,-122"/>
<text text-anchor="middle" x="140" y="-99.8" font-family="Times,serif" font-size="14.00">HealthcarePage</text>
</g>
<!-- HealthcarePageModule -->
<g id="node2" class="node">
<title>HealthcarePageModule</title>
<polygon fill="#8dd3c7" stroke="black" points="306.88,-187 303.88,-191 282.88,-191 279.88,-187 159.12,-187 159.12,-151 306.88,-151 306.88,-187"/>
<text text-anchor="middle" x="233" y="-164.8" font-family="Times,serif" font-size="14.00">HealthcarePageModule</text>
</g>
<!-- HealthcarePage&#45;&gt;HealthcarePageModule -->
<g id="edge1" class="edge">
<title>HealthcarePage&#45;&gt;HealthcarePageModule</title>
<path fill="none" stroke="black" d="M175.61,-122.11C175.61,-122.11 175.61,-140.99 175.61,-140.99"/>
<polygon fill="black" stroke="black" points="172.11,-140.99 175.61,-150.99 179.11,-140.99 172.11,-140.99"/>
</g>
<!-- HealthcarePageRoutingModule -->
<g id="node3" class="node">
<title>HealthcarePageRoutingModule</title>
<polygon fill="#8dd3c7" stroke="black" points="408,-122 405,-126 384,-126 381,-122 216,-122 216,-86 408,-86 408,-122"/>
<text text-anchor="middle" x="312" y="-99.8" font-family="Times,serif" font-size="14.00">HealthcarePageRoutingModule</text>
</g>
<!-- HealthcarePageRoutingModule&#45;&gt;HealthcarePageModule -->
<g id="edge2" class="edge">
<title>HealthcarePageRoutingModule&#45;&gt;HealthcarePageModule</title>
<path fill="none" stroke="black" d="M261.22,-122.11C261.22,-122.11 261.22,-140.99 261.22,-140.99"/>
<polygon fill="black" stroke="black" points="257.72,-140.99 261.22,-150.99 264.72,-140.99 257.72,-140.99"/>
</g>
</g>
</svg>
