<?xml version="1.0" encoding="UTF-8" standalone="no"?>
<!DOCTYPE svg PUBLIC "-//W3C//DTD SVG 1.1//EN"
 "http://www.w3.org/Graphics/SVG/1.1/DTD/svg11.dtd">
<!-- Generated by graphviz version 2.46.1 (20210213.1702)
 -->
<!-- Title: dependencies Pages: 1 -->
<svg width="504pt" height="211pt"
 viewBox="0.00 0.00 504.00 211.00" xmlns="http://www.w3.org/2000/svg" xmlns:xlink="http://www.w3.org/1999/xlink">
<g id="graph0" class="graph" transform="scale(1 1) rotate(0) translate(4 207)">
<title>dependencies</title>
<polygon fill="white" stroke="transparent" points="-4,4 -4,-207 500,-207 500,4 -4,4"/>
<text text-anchor="start" x="227.01" y="-42.4" font-family="sans-serif" font-weight="bold" font-size="14.00">Legend</text>
<polygon fill="#ffffb3" stroke="transparent" points="14,-10 14,-30 34,-30 34,-10 14,-10"/>
<text text-anchor="start" x="37.63" y="-15.4" font-family="sans-serif" font-size="14.00"> &#160;Declarations</text>
<polygon fill="#8dd3c7" stroke="transparent" points="127,-10 127,-30 147,-30 147,-10 127,-10"/>
<text text-anchor="start" x="150.73" y="-15.4" font-family="sans-serif" font-size="14.00"> &#160;Module</text>
<polygon fill="#80b1d3" stroke="transparent" points="213,-10 213,-30 233,-30 233,-10 213,-10"/>
<text text-anchor="start" x="236.78" y="-15.4" font-family="sans-serif" font-size="14.00"> &#160;Bootstrap</text>
<polygon fill="#fdb462" stroke="transparent" points="310,-10 310,-30 330,-30 330,-10 310,-10"/>
<text text-anchor="start" x="333.67" y="-15.4" font-family="sans-serif" font-size="14.00"> &#160;Providers</text>
<polygon fill="#fb8072" stroke="transparent" points="406,-10 406,-30 426,-30 426,-10 406,-10"/>
<text text-anchor="start" x="429.73" y="-15.4" font-family="sans-serif" font-size="14.00"> &#160;Exports</text>
<g id="clust1" class="cluster">
<title>cluster_SignInPageModule</title>
<polygon fill="none" stroke="black" stroke-dasharray="1,5" points="95,-70 95,-195 401,-195 401,-70 95,-70"/>
</g>
<g id="clust4" class="cluster">
<title>cluster_SignInPageModule_imports</title>
<polygon fill="none" stroke="black" points="207,-78 207,-130 393,-130 393,-78 207,-78"/>
</g>
<g id="clust2" class="cluster">
<title>cluster_SignInPageModule_declarations</title>
<polygon fill="none" stroke="black" points="103,-78 103,-130 199,-130 199,-78 103,-78"/>
</g>
<!-- SignInPage -->
<g id="node1" class="node">
<title>SignInPage</title>
<polygon fill="#ffffb3" stroke="black" points="191.05,-122 110.95,-122 110.95,-86 191.05,-86 191.05,-122"/>
<text text-anchor="middle" x="151" y="-99.8" font-family="Times,serif" font-size="14.00">SignInPage</text>
</g>
<!-- SignInPageModule -->
<g id="node2" class="node">
<title>SignInPageModule</title>
<polygon fill="#8dd3c7" stroke="black" points="294.1,-187 291.1,-191 270.1,-191 267.1,-187 169.9,-187 169.9,-151 294.1,-151 294.1,-187"/>
<text text-anchor="middle" x="232" y="-164.8" font-family="Times,serif" font-size="14.00">SignInPageModule</text>
</g>
<!-- SignInPage&#45;&gt;SignInPageModule -->
<g id="edge1" class="edge">
<title>SignInPage&#45;&gt;SignInPageModule</title>
<path fill="none" stroke="black" d="M180.61,-122.11C180.61,-122.11 180.61,-140.99 180.61,-140.99"/>
<polygon fill="black" stroke="black" points="177.11,-140.99 180.61,-150.99 184.11,-140.99 177.11,-140.99"/>
</g>
<!-- SignInPageRoutingModule -->
<g id="node3" class="node">
<title>SignInPageRoutingModule</title>
<polygon fill="#8dd3c7" stroke="black" points="384.71,-122 381.71,-126 360.71,-126 357.71,-122 215.29,-122 215.29,-86 384.71,-86 384.71,-122"/>
<text text-anchor="middle" x="300" y="-99.8" font-family="Times,serif" font-size="14.00">SignInPageRoutingModule</text>
</g>
<!-- SignInPageRoutingModule&#45;&gt;SignInPageModule -->
<g id="edge2" class="edge">
<title>SignInPageRoutingModule&#45;&gt;SignInPageModule</title>
<path fill="none" stroke="black" d="M254.72,-122.11C254.72,-122.11 254.72,-140.99 254.72,-140.99"/>
<polygon fill="black" stroke="black" points="251.22,-140.99 254.72,-150.99 258.22,-140.99 251.22,-140.99"/>
</g>
</g>
</svg>
