<?xml version="1.0" encoding="UTF-8" standalone="no"?>
<!DOCTYPE svg PUBLIC "-//W3C//DTD SVG 1.1//EN"
 "http://www.w3.org/Graphics/SVG/1.1/DTD/svg11.dtd">
<!-- Generated by graphviz version 2.44.1 (20200629.0846)
 -->
<!-- Title: dependencies Pages: 1 -->
<svg width="504pt" height="211pt"
 viewBox="0.00 0.00 504.00 211.00" xmlns="http://www.w3.org/2000/svg" xmlns:xlink="http://www.w3.org/1999/xlink">
<g id="graph0" class="graph" transform="scale(1 1) rotate(0) translate(4 207)">
<title>dependencies</title>
<polygon fill="white" stroke="transparent" points="-4,4 -4,-207 500,-207 500,4 -4,4"/>
<text text-anchor="start" x="227.01" y="-42.4" font-family="sans-serif" font-weight="bold" font-size="14.00">Legend</text>
<polygon fill="#ffffb3" stroke="transparent" points="14,-10 14,-30 34,-30 34,-10 14,-10"/>
<text text-anchor="start" x="37.63" y="-15.4" font-family="sans-serif" font-size="14.00"> &#160;Declarations</text>
<polygon fill="#8dd3c7" stroke="transparent" points="127,-10 127,-30 147,-30 147,-10 127,-10"/>
<text text-anchor="start" x="150.73" y="-15.4" font-family="sans-serif" font-size="14.00"> &#160;Module</text>
<polygon fill="#80b1d3" stroke="transparent" points="213,-10 213,-30 233,-30 233,-10 213,-10"/>
<text text-anchor="start" x="236.78" y="-15.4" font-family="sans-serif" font-size="14.00"> &#160;Bootstrap</text>
<polygon fill="#fdb462" stroke="transparent" points="310,-10 310,-30 330,-30 330,-10 310,-10"/>
<text text-anchor="start" x="333.67" y="-15.4" font-family="sans-serif" font-size="14.00"> &#160;Providers</text>
<polygon fill="#fb8072" stroke="transparent" points="406,-10 406,-30 426,-30 426,-10 406,-10"/>
<text text-anchor="start" x="429.73" y="-15.4" font-family="sans-serif" font-size="14.00"> &#160;Exports</text>
<g id="clust1" class="cluster">
<title>cluster_MediaPageModule</title>
<polygon fill="none" stroke="black" stroke-dasharray="1,5" points="97,-70 97,-195 399,-195 399,-70 97,-70"/>
</g>
<g id="clust4" class="cluster">
<title>cluster_MediaPageModule_imports</title>
<polygon fill="none" stroke="black" points="207,-78 207,-130 391,-130 391,-78 207,-78"/>
</g>
<g id="clust2" class="cluster">
<title>cluster_MediaPageModule_declarations</title>
<polygon fill="none" stroke="black" points="105,-78 105,-130 199,-130 199,-78 105,-78"/>
</g>
<!-- MediaPage -->
<g id="node1" class="node">
<title>MediaPage</title>
<polygon fill="#ffffb3" stroke="black" points="191.48,-122 112.52,-122 112.52,-86 191.48,-86 191.48,-122"/>
<text text-anchor="middle" x="152" y="-99.8" font-family="Times,serif" font-size="14.00">MediaPage</text>
</g>
<!-- MediaPageModule -->
<g id="node2" class="node">
<title>MediaPageModule</title>
<polygon fill="#8dd3c7" stroke="black" points="293.03,-187 290.03,-191 269.03,-191 266.03,-187 170.97,-187 170.97,-151 293.03,-151 293.03,-187"/>
<text text-anchor="middle" x="232" y="-164.8" font-family="Times,serif" font-size="14.00">MediaPageModule</text>
</g>
<!-- MediaPage&#45;&gt;MediaPageModule -->
<g id="edge1" class="edge">
<title>MediaPage&#45;&gt;MediaPageModule</title>
<path fill="none" stroke="black" d="M181.11,-122.11C181.11,-122.11 181.11,-140.99 181.11,-140.99"/>
<polygon fill="black" stroke="black" points="177.61,-140.99 181.11,-150.99 184.61,-140.99 177.61,-140.99"/>
</g>
<!-- MediaPageRoutingModule -->
<g id="node3" class="node">
<title>MediaPageRoutingModule</title>
<polygon fill="#8dd3c7" stroke="black" points="382.64,-122 379.64,-126 358.64,-126 355.64,-122 215.36,-122 215.36,-86 382.64,-86 382.64,-122"/>
<text text-anchor="middle" x="299" y="-99.8" font-family="Times,serif" font-size="14.00">MediaPageRoutingModule</text>
</g>
<!-- MediaPageRoutingModule&#45;&gt;MediaPageModule -->
<g id="edge2" class="edge">
<title>MediaPageRoutingModule&#45;&gt;MediaPageModule</title>
<path fill="none" stroke="black" d="M254.22,-122.11C254.22,-122.11 254.22,-140.99 254.22,-140.99"/>
<polygon fill="black" stroke="black" points="250.72,-140.99 254.22,-150.99 257.72,-140.99 250.72,-140.99"/>
</g>
</g>
</svg>
