<?xml version="1.0" encoding="UTF-8" standalone="no"?>
<!DOCTYPE svg PUBLIC "-//W3C//DTD SVG 1.1//EN"
 "http://www.w3.org/Graphics/SVG/1.1/DTD/svg11.dtd">
<!-- Generated by graphviz version 2.44.1 (20200629.0846)
 -->
<!-- Title: dependencies Pages: 1 -->
<svg width="504pt" height="211pt"
 viewBox="0.00 0.00 504.00 211.00" xmlns="http://www.w3.org/2000/svg" xmlns:xlink="http://www.w3.org/1999/xlink">
<g id="graph0" class="graph" transform="scale(1 1) rotate(0) translate(4 207)">
<title>dependencies</title>
<polygon fill="white" stroke="transparent" points="-4,4 -4,-207 500,-207 500,4 -4,4"/>
<text text-anchor="start" x="227.01" y="-42.4" font-family="sans-serif" font-weight="bold" font-size="14.00">Legend</text>
<polygon fill="#ffffb3" stroke="transparent" points="14,-10 14,-30 34,-30 34,-10 14,-10"/>
<text text-anchor="start" x="37.63" y="-15.4" font-family="sans-serif" font-size="14.00"> &#160;Declarations</text>
<polygon fill="#8dd3c7" stroke="transparent" points="127,-10 127,-30 147,-30 147,-10 127,-10"/>
<text text-anchor="start" x="150.73" y="-15.4" font-family="sans-serif" font-size="14.00"> &#160;Module</text>
<polygon fill="#80b1d3" stroke="transparent" points="213,-10 213,-30 233,-30 233,-10 213,-10"/>
<text text-anchor="start" x="236.78" y="-15.4" font-family="sans-serif" font-size="14.00"> &#160;Bootstrap</text>
<polygon fill="#fdb462" stroke="transparent" points="310,-10 310,-30 330,-30 330,-10 310,-10"/>
<text text-anchor="start" x="333.67" y="-15.4" font-family="sans-serif" font-size="14.00"> &#160;Providers</text>
<polygon fill="#fb8072" stroke="transparent" points="406,-10 406,-30 426,-30 426,-10 406,-10"/>
<text text-anchor="start" x="429.73" y="-15.4" font-family="sans-serif" font-size="14.00"> &#160;Exports</text>
<g id="clust1" class="cluster">
<title>cluster_TradingPageModule</title>
<polygon fill="none" stroke="black" stroke-dasharray="1,5" points="88,-70 88,-195 408,-195 408,-70 88,-70"/>
</g>
<g id="clust2" class="cluster">
<title>cluster_TradingPageModule_declarations</title>
<polygon fill="none" stroke="black" points="296,-78 296,-130 400,-130 400,-78 296,-78"/>
</g>
<g id="clust4" class="cluster">
<title>cluster_TradingPageModule_imports</title>
<polygon fill="none" stroke="black" points="96,-78 96,-130 288,-130 288,-78 96,-78"/>
</g>
<!-- TradingPage -->
<g id="node1" class="node">
<title>TradingPage</title>
<polygon fill="#ffffb3" stroke="black" points="391.53,-122 304.47,-122 304.47,-86 391.53,-86 391.53,-122"/>
<text text-anchor="middle" x="348" y="-99.8" font-family="Times,serif" font-size="14.00">TradingPage</text>
</g>
<!-- TradingPageModule -->
<g id="node2" class="node">
<title>TradingPageModule</title>
<polygon fill="#8dd3c7" stroke="black" points="328.58,-187 325.58,-191 304.58,-191 301.58,-187 197.42,-187 197.42,-151 328.58,-151 328.58,-187"/>
<text text-anchor="middle" x="263" y="-164.8" font-family="Times,serif" font-size="14.00">TradingPageModule</text>
</g>
<!-- TradingPage&#45;&gt;TradingPageModule -->
<g id="edge1" class="edge">
<title>TradingPage&#45;&gt;TradingPageModule</title>
<path fill="none" stroke="black" d="M316.39,-122.11C316.39,-122.11 316.39,-140.99 316.39,-140.99"/>
<polygon fill="black" stroke="black" points="312.89,-140.99 316.39,-150.99 319.89,-140.99 312.89,-140.99"/>
</g>
<!-- TradingPageRoutingModule -->
<g id="node3" class="node">
<title>TradingPageRoutingModule</title>
<polygon fill="#8dd3c7" stroke="black" points="280.2,-122 277.2,-126 256.2,-126 253.2,-122 103.8,-122 103.8,-86 280.2,-86 280.2,-122"/>
<text text-anchor="middle" x="192" y="-99.8" font-family="Times,serif" font-size="14.00">TradingPageRoutingModule</text>
</g>
<!-- TradingPageRoutingModule&#45;&gt;TradingPageModule -->
<g id="edge2" class="edge">
<title>TradingPageRoutingModule&#45;&gt;TradingPageModule</title>
<path fill="none" stroke="black" d="M238.78,-122.11C238.78,-122.11 238.78,-140.99 238.78,-140.99"/>
<polygon fill="black" stroke="black" points="235.28,-140.99 238.78,-150.99 242.28,-140.99 235.28,-140.99"/>
</g>
</g>
</svg>
