<?xml version="1.0" encoding="UTF-8" standalone="no"?>
<!DOCTYPE svg PUBLIC "-//W3C//DTD SVG 1.1//EN"
 "http://www.w3.org/Graphics/SVG/1.1/DTD/svg11.dtd">
<!-- Generated by graphviz version 2.44.1 (20200629.0846)
 -->
<!-- Title: dependencies Pages: 1 -->
<svg width="504pt" height="211pt"
 viewBox="0.00 0.00 504.00 211.00" xmlns="http://www.w3.org/2000/svg" xmlns:xlink="http://www.w3.org/1999/xlink">
<g id="graph0" class="graph" transform="scale(1 1) rotate(0) translate(4 207)">
<title>dependencies</title>
<polygon fill="white" stroke="transparent" points="-4,4 -4,-207 500,-207 500,4 -4,4"/>
<text text-anchor="start" x="227.01" y="-42.4" font-family="sans-serif" font-weight="bold" font-size="14.00">Legend</text>
<polygon fill="#ffffb3" stroke="transparent" points="14,-10 14,-30 34,-30 34,-10 14,-10"/>
<text text-anchor="start" x="37.63" y="-15.4" font-family="sans-serif" font-size="14.00"> &#160;Declarations</text>
<polygon fill="#8dd3c7" stroke="transparent" points="127,-10 127,-30 147,-30 147,-10 127,-10"/>
<text text-anchor="start" x="150.73" y="-15.4" font-family="sans-serif" font-size="14.00"> &#160;Module</text>
<polygon fill="#80b1d3" stroke="transparent" points="213,-10 213,-30 233,-30 233,-10 213,-10"/>
<text text-anchor="start" x="236.78" y="-15.4" font-family="sans-serif" font-size="14.00"> &#160;Bootstrap</text>
<polygon fill="#fdb462" stroke="transparent" points="310,-10 310,-30 330,-30 330,-10 310,-10"/>
<text text-anchor="start" x="333.67" y="-15.4" font-family="sans-serif" font-size="14.00"> &#160;Providers</text>
<polygon fill="#fb8072" stroke="transparent" points="406,-10 406,-30 426,-30 426,-10 406,-10"/>
<text text-anchor="start" x="429.73" y="-15.4" font-family="sans-serif" font-size="14.00"> &#160;Exports</text>
<g id="clust1" class="cluster">
<title>cluster_JusticePageModule</title>
<polygon fill="none" stroke="black" stroke-dasharray="1,5" points="94,-70 94,-195 402,-195 402,-70 94,-70"/>
</g>
<g id="clust2" class="cluster">
<title>cluster_JusticePageModule_declarations</title>
<polygon fill="none" stroke="black" points="296,-78 296,-130 394,-130 394,-78 296,-78"/>
</g>
<g id="clust4" class="cluster">
<title>cluster_JusticePageModule_imports</title>
<polygon fill="none" stroke="black" points="102,-78 102,-130 288,-130 288,-78 102,-78"/>
</g>
<!-- JusticePage -->
<g id="node1" class="node">
<title>JusticePage</title>
<polygon fill="#ffffb3" stroke="black" points="385.81,-122 304.19,-122 304.19,-86 385.81,-86 385.81,-122"/>
<text text-anchor="middle" x="345" y="-99.8" font-family="Times,serif" font-size="14.00">JusticePage</text>
</g>
<!-- JusticePageModule -->
<g id="node2" class="node">
<title>JusticePageModule</title>
<polygon fill="#8dd3c7" stroke="black" points="325.36,-187 322.36,-191 301.36,-191 298.36,-187 200.64,-187 200.64,-151 325.36,-151 325.36,-187"/>
<text text-anchor="middle" x="263" y="-164.8" font-family="Times,serif" font-size="14.00">JusticePageModule</text>
</g>
<!-- JusticePage&#45;&gt;JusticePageModule -->
<g id="edge1" class="edge">
<title>JusticePage&#45;&gt;JusticePageModule</title>
<path fill="none" stroke="black" d="M314.89,-122.11C314.89,-122.11 314.89,-140.99 314.89,-140.99"/>
<polygon fill="black" stroke="black" points="311.39,-140.99 314.89,-150.99 318.39,-140.99 311.39,-140.99"/>
</g>
<!-- JusticePageRoutingModule -->
<g id="node3" class="node">
<title>JusticePageRoutingModule</title>
<polygon fill="#8dd3c7" stroke="black" points="279.98,-122 276.98,-126 255.98,-126 252.98,-122 110.02,-122 110.02,-86 279.98,-86 279.98,-122"/>
<text text-anchor="middle" x="195" y="-99.8" font-family="Times,serif" font-size="14.00">JusticePageRoutingModule</text>
</g>
<!-- JusticePageRoutingModule&#45;&gt;JusticePageModule -->
<g id="edge2" class="edge">
<title>JusticePageRoutingModule&#45;&gt;JusticePageModule</title>
<path fill="none" stroke="black" d="M240.28,-122.11C240.28,-122.11 240.28,-140.99 240.28,-140.99"/>
<polygon fill="black" stroke="black" points="236.78,-140.99 240.28,-150.99 243.78,-140.99 236.78,-140.99"/>
</g>
</g>
</svg>
