<?xml version="1.0" encoding="UTF-8" standalone="no"?>
<!DOCTYPE svg PUBLIC "-//W3C//DTD SVG 1.1//EN"
 "http://www.w3.org/Graphics/SVG/1.1/DTD/svg11.dtd">
<!-- Generated by graphviz version 2.46.1 (20210213.1702)
 -->
<!-- Title: dependencies Pages: 1 -->
<svg width="504pt" height="211pt"
 viewBox="0.00 0.00 504.00 211.00" xmlns="http://www.w3.org/2000/svg" xmlns:xlink="http://www.w3.org/1999/xlink">
<g id="graph0" class="graph" transform="scale(1 1) rotate(0) translate(4 207)">
<title>dependencies</title>
<polygon fill="white" stroke="transparent" points="-4,4 -4,-207 500,-207 500,4 -4,4"/>
<text text-anchor="start" x="227.01" y="-42.4" font-family="sans-serif" font-weight="bold" font-size="14.00">Legend</text>
<polygon fill="#ffffb3" stroke="transparent" points="14,-10 14,-30 34,-30 34,-10 14,-10"/>
<text text-anchor="start" x="37.63" y="-15.4" font-family="sans-serif" font-size="14.00"> &#160;Declarations</text>
<polygon fill="#8dd3c7" stroke="transparent" points="127,-10 127,-30 147,-30 147,-10 127,-10"/>
<text text-anchor="start" x="150.73" y="-15.4" font-family="sans-serif" font-size="14.00"> &#160;Module</text>
<polygon fill="#80b1d3" stroke="transparent" points="213,-10 213,-30 233,-30 233,-10 213,-10"/>
<text text-anchor="start" x="236.78" y="-15.4" font-family="sans-serif" font-size="14.00"> &#160;Bootstrap</text>
<polygon fill="#fdb462" stroke="transparent" points="310,-10 310,-30 330,-30 330,-10 310,-10"/>
<text text-anchor="start" x="333.67" y="-15.4" font-family="sans-serif" font-size="14.00"> &#160;Providers</text>
<polygon fill="#fb8072" stroke="transparent" points="406,-10 406,-30 426,-30 426,-10 406,-10"/>
<text text-anchor="start" x="429.73" y="-15.4" font-family="sans-serif" font-size="14.00"> &#160;Exports</text>
<g id="clust1" class="cluster">
<title>cluster_BankingPageModule</title>
<polygon fill="none" stroke="black" stroke-dasharray="1,5" points="85,-70 85,-195 411,-195 411,-70 85,-70"/>
</g>
<g id="clust4" class="cluster">
<title>cluster_BankingPageModule_imports</title>
<polygon fill="none" stroke="black" points="207,-78 207,-130 403,-130 403,-78 207,-78"/>
</g>
<g id="clust2" class="cluster">
<title>cluster_BankingPageModule_declarations</title>
<polygon fill="none" stroke="black" points="93,-78 93,-130 199,-130 199,-78 93,-78"/>
</g>
<!-- BankingPage -->
<g id="node1" class="node">
<title>BankingPage</title>
<polygon fill="#ffffb3" stroke="black" points="191.15,-122 100.85,-122 100.85,-86 191.15,-86 191.15,-122"/>
<text text-anchor="middle" x="146" y="-99.8" font-family="Times,serif" font-size="14.00">BankingPage</text>
</g>
<!-- BankingPageModule -->
<g id="node2" class="node">
<title>BankingPageModule</title>
<polygon fill="#8dd3c7" stroke="black" points="299.2,-187 296.2,-191 275.2,-191 272.2,-187 164.8,-187 164.8,-151 299.2,-151 299.2,-187"/>
<text text-anchor="middle" x="232" y="-164.8" font-family="Times,serif" font-size="14.00">BankingPageModule</text>
</g>
<!-- BankingPage&#45;&gt;BankingPageModule -->
<g id="edge1" class="edge">
<title>BankingPage&#45;&gt;BankingPageModule</title>
<path fill="none" stroke="black" d="M178.11,-122.11C178.11,-122.11 178.11,-140.99 178.11,-140.99"/>
<polygon fill="black" stroke="black" points="174.61,-140.99 178.11,-150.99 181.61,-140.99 174.61,-140.99"/>
</g>
<!-- BankingPageRoutingModule -->
<g id="node3" class="node">
<title>BankingPageRoutingModule</title>
<polygon fill="#8dd3c7" stroke="black" points="394.82,-122 391.82,-126 370.82,-126 367.82,-122 215.18,-122 215.18,-86 394.82,-86 394.82,-122"/>
<text text-anchor="middle" x="305" y="-99.8" font-family="Times,serif" font-size="14.00">BankingPageRoutingModule</text>
</g>
<!-- BankingPageRoutingModule&#45;&gt;BankingPageModule -->
<g id="edge2" class="edge">
<title>BankingPageRoutingModule&#45;&gt;BankingPageModule</title>
<path fill="none" stroke="black" d="M257.22,-122.11C257.22,-122.11 257.22,-140.99 257.22,-140.99"/>
<polygon fill="black" stroke="black" points="253.72,-140.99 257.22,-150.99 260.72,-140.99 253.72,-140.99"/>
</g>
</g>
</svg>
