<?xml version="1.0" encoding="UTF-8" standalone="no"?>
<!DOCTYPE svg PUBLIC "-//W3C//DTD SVG 1.1//EN"
 "http://www.w3.org/Graphics/SVG/1.1/DTD/svg11.dtd">
<!-- Generated by graphviz version 2.46.1 (20210213.1702)
 -->
<!-- Title: dependencies Pages: 1 -->
<svg width="504pt" height="211pt"
 viewBox="0.00 0.00 504.00 211.00" xmlns="http://www.w3.org/2000/svg" xmlns:xlink="http://www.w3.org/1999/xlink">
<g id="graph0" class="graph" transform="scale(1 1) rotate(0) translate(4 207)">
<title>dependencies</title>
<polygon fill="white" stroke="transparent" points="-4,4 -4,-207 500,-207 500,4 -4,4"/>
<text text-anchor="start" x="227.01" y="-42.4" font-family="sans-serif" font-weight="bold" font-size="14.00">Legend</text>
<polygon fill="#ffffb3" stroke="transparent" points="14,-10 14,-30 34,-30 34,-10 14,-10"/>
<text text-anchor="start" x="37.63" y="-15.4" font-family="sans-serif" font-size="14.00"> &#160;Declarations</text>
<polygon fill="#8dd3c7" stroke="transparent" points="127,-10 127,-30 147,-30 147,-10 127,-10"/>
<text text-anchor="start" x="150.73" y="-15.4" font-family="sans-serif" font-size="14.00"> &#160;Module</text>
<polygon fill="#80b1d3" stroke="transparent" points="213,-10 213,-30 233,-30 233,-10 213,-10"/>
<text text-anchor="start" x="236.78" y="-15.4" font-family="sans-serif" font-size="14.00"> &#160;Bootstrap</text>
<polygon fill="#fdb462" stroke="transparent" points="310,-10 310,-30 330,-30 330,-10 310,-10"/>
<text text-anchor="start" x="333.67" y="-15.4" font-family="sans-serif" font-size="14.00"> &#160;Providers</text>
<polygon fill="#fb8072" stroke="transparent" points="406,-10 406,-30 426,-30 426,-10 406,-10"/>
<text text-anchor="start" x="429.73" y="-15.4" font-family="sans-serif" font-size="14.00"> &#160;Exports</text>
<g id="clust1" class="cluster">
<title>cluster_BankingPageModule</title>
<polygon fill="none" stroke="black" stroke-dasharray="1,5" points="85,-70 85,-195 411,-195 411,-70 85,-70"/>
</g>
<g id="clust2" class="cluster">
<title>cluster_BankingPageModule_declarations</title>
<polygon fill="none" stroke="black" points="297,-78 297,-130 403,-130 403,-78 297,-78"/>
</g>
<g id="clust4" class="cluster">
<title>cluster_BankingPageModule_imports</title>
<polygon fill="none" stroke="black" points="93,-78 93,-130 289,-130 289,-78 93,-78"/>
</g>
<!-- BankingPage -->
<g id="node1" class="node">
<title>BankingPage</title>
<polygon fill="#ffffb3" stroke="black" points="395.15,-122 304.85,-122 304.85,-86 395.15,-86 395.15,-122"/>
<text text-anchor="middle" x="350" y="-99.8" font-family="Times,serif" font-size="14.00">BankingPage</text>
</g>
<!-- BankingPageModule -->
<g id="node2" class="node">
<title>BankingPageModule</title>
<polygon fill="#8dd3c7" stroke="black" points="330.2,-187 327.2,-191 306.2,-191 303.2,-187 195.8,-187 195.8,-151 330.2,-151 330.2,-187"/>
<text text-anchor="middle" x="263" y="-164.8" font-family="Times,serif" font-size="14.00">BankingPageModule</text>
</g>
<!-- BankingPage&#45;&gt;BankingPageModule -->
<g id="edge1" class="edge">
<title>BankingPage&#45;&gt;BankingPageModule</title>
<path fill="none" stroke="black" d="M317.39,-122.11C317.39,-122.11 317.39,-140.99 317.39,-140.99"/>
<polygon fill="black" stroke="black" points="313.89,-140.99 317.39,-150.99 320.89,-140.99 313.89,-140.99"/>
</g>
<!-- BankingPageRoutingModule -->
<g id="node3" class="node">
<title>BankingPageRoutingModule</title>
<polygon fill="#8dd3c7" stroke="black" points="280.82,-122 277.82,-126 256.82,-126 253.82,-122 101.18,-122 101.18,-86 280.82,-86 280.82,-122"/>
<text text-anchor="middle" x="191" y="-99.8" font-family="Times,serif" font-size="14.00">BankingPageRoutingModule</text>
</g>
<!-- BankingPageRoutingModule&#45;&gt;BankingPageModule -->
<g id="edge2" class="edge">
<title>BankingPageRoutingModule&#45;&gt;BankingPageModule</title>
<path fill="none" stroke="black" d="M238.28,-122.11C238.28,-122.11 238.28,-140.99 238.28,-140.99"/>
<polygon fill="black" stroke="black" points="234.78,-140.99 238.28,-150.99 241.78,-140.99 234.78,-140.99"/>
</g>
</g>
</svg>
