<?xml version="1.0" encoding="UTF-8" standalone="no"?>
<!DOCTYPE svg PUBLIC "-//W3C//DTD SVG 1.1//EN"
 "http://www.w3.org/Graphics/SVG/1.1/DTD/svg11.dtd">
<!-- Generated by graphviz version 2.47.0 (20210316.0004)
 -->
<!-- Title: dependencies Pages: 1 -->
<svg width="504pt" height="211pt"
 viewBox="0.00 0.00 504.00 211.00" xmlns="http://www.w3.org/2000/svg" xmlns:xlink="http://www.w3.org/1999/xlink">
<g id="graph0" class="graph" transform="scale(1 1) rotate(0) translate(4 207)">
<title>dependencies</title>
<polygon fill="white" stroke="transparent" points="-4,4 -4,-207 500,-207 500,4 -4,4"/>
<text text-anchor="start" x="227.01" y="-42.4" font-family="sans-serif" font-weight="bold" font-size="14.00">Legend</text>
<polygon fill="#ffffb3" stroke="transparent" points="14,-10 14,-30 34,-30 34,-10 14,-10"/>
<text text-anchor="start" x="37.63" y="-15.4" font-family="sans-serif" font-size="14.00"> &#160;Declarations</text>
<polygon fill="#8dd3c7" stroke="transparent" points="127,-10 127,-30 147,-30 147,-10 127,-10"/>
<text text-anchor="start" x="150.73" y="-15.4" font-family="sans-serif" font-size="14.00"> &#160;Module</text>
<polygon fill="#80b1d3" stroke="transparent" points="213,-10 213,-30 233,-30 233,-10 213,-10"/>
<text text-anchor="start" x="236.78" y="-15.4" font-family="sans-serif" font-size="14.00"> &#160;Bootstrap</text>
<polygon fill="#fdb462" stroke="transparent" points="310,-10 310,-30 330,-30 330,-10 310,-10"/>
<text text-anchor="start" x="333.67" y="-15.4" font-family="sans-serif" font-size="14.00"> &#160;Providers</text>
<polygon fill="#fb8072" stroke="transparent" points="406,-10 406,-30 426,-30 426,-10 406,-10"/>
<text text-anchor="start" x="429.73" y="-15.4" font-family="sans-serif" font-size="14.00"> &#160;Exports</text>
<g id="clust1" class="cluster">
<title>cluster_SinhalaPageModule</title>
<polygon fill="none" stroke="black" stroke-dasharray="1,5" points="90,-70 90,-195 406,-195 406,-70 90,-70"/>
</g>
<g id="clust2" class="cluster">
<title>cluster_SinhalaPageModule_declarations</title>
<polygon fill="none" stroke="black" points="296,-78 296,-130 398,-130 398,-78 296,-78"/>
</g>
<g id="clust4" class="cluster">
<title>cluster_SinhalaPageModule_imports</title>
<polygon fill="none" stroke="black" points="98,-78 98,-130 288,-130 288,-78 98,-78"/>
</g>
<!-- SinhalaPage -->
<g id="node1" class="node">
<title>SinhalaPage</title>
<polygon fill="#ffffb3" stroke="black" points="389.71,-122 304.29,-122 304.29,-86 389.71,-86 389.71,-122"/>
<text text-anchor="middle" x="347" y="-99.8" font-family="Times,serif" font-size="14.00">SinhalaPage</text>
</g>
<!-- SinhalaPageModule -->
<g id="node2" class="node">
<title>SinhalaPageModule</title>
<polygon fill="#8dd3c7" stroke="black" points="327.25,-187 324.25,-191 303.25,-191 300.25,-187 198.75,-187 198.75,-151 327.25,-151 327.25,-187"/>
<text text-anchor="middle" x="263" y="-164.8" font-family="Times,serif" font-size="14.00">SinhalaPageModule</text>
</g>
<!-- SinhalaPage&#45;&gt;SinhalaPageModule -->
<g id="edge1" class="edge">
<title>SinhalaPage&#45;&gt;SinhalaPageModule</title>
<path fill="none" stroke="black" d="M315.89,-122.11C315.89,-122.11 315.89,-140.99 315.89,-140.99"/>
<polygon fill="black" stroke="black" points="312.39,-140.99 315.89,-150.99 319.39,-140.99 312.39,-140.99"/>
</g>
<!-- SinhalaPageRoutingModule -->
<g id="node3" class="node">
<title>SinhalaPageRoutingModule</title>
<polygon fill="#8dd3c7" stroke="black" points="279.87,-122 276.87,-126 255.87,-126 252.87,-122 106.13,-122 106.13,-86 279.87,-86 279.87,-122"/>
<text text-anchor="middle" x="193" y="-99.8" font-family="Times,serif" font-size="14.00">SinhalaPageRoutingModule</text>
</g>
<!-- SinhalaPageRoutingModule&#45;&gt;SinhalaPageModule -->
<g id="edge2" class="edge">
<title>SinhalaPageRoutingModule&#45;&gt;SinhalaPageModule</title>
<path fill="none" stroke="black" d="M239.28,-122.11C239.28,-122.11 239.28,-140.99 239.28,-140.99"/>
<polygon fill="black" stroke="black" points="235.78,-140.99 239.28,-150.99 242.78,-140.99 235.78,-140.99"/>
</g>
</g>
</svg>
