<?xml version="1.0" encoding="UTF-8" standalone="no"?>
<!DOCTYPE svg PUBLIC "-//W3C//DTD SVG 1.1//EN"
 "http://www.w3.org/Graphics/SVG/1.1/DTD/svg11.dtd">
<!-- Generated by graphviz version 2.44.1 (20200629.0846)
 -->
<!-- Title: dependencies Pages: 1 -->
<svg width="504pt" height="211pt"
 viewBox="0.00 0.00 504.00 211.00" xmlns="http://www.w3.org/2000/svg" xmlns:xlink="http://www.w3.org/1999/xlink">
<g id="graph0" class="graph" transform="scale(1 1) rotate(0) translate(4 207)">
<title>dependencies</title>
<polygon fill="white" stroke="transparent" points="-4,4 -4,-207 500,-207 500,4 -4,4"/>
<text text-anchor="start" x="227.01" y="-42.4" font-family="sans-serif" font-weight="bold" font-size="14.00">Legend</text>
<polygon fill="#ffffb3" stroke="transparent" points="14,-10 14,-30 34,-30 34,-10 14,-10"/>
<text text-anchor="start" x="37.63" y="-15.4" font-family="sans-serif" font-size="14.00"> &#160;Declarations</text>
<polygon fill="#8dd3c7" stroke="transparent" points="127,-10 127,-30 147,-30 147,-10 127,-10"/>
<text text-anchor="start" x="150.73" y="-15.4" font-family="sans-serif" font-size="14.00"> &#160;Module</text>
<polygon fill="#80b1d3" stroke="transparent" points="213,-10 213,-30 233,-30 233,-10 213,-10"/>
<text text-anchor="start" x="236.78" y="-15.4" font-family="sans-serif" font-size="14.00"> &#160;Bootstrap</text>
<polygon fill="#fdb462" stroke="transparent" points="310,-10 310,-30 330,-30 330,-10 310,-10"/>
<text text-anchor="start" x="333.67" y="-15.4" font-family="sans-serif" font-size="14.00"> &#160;Providers</text>
<polygon fill="#fb8072" stroke="transparent" points="406,-10 406,-30 426,-30 426,-10 406,-10"/>
<text text-anchor="start" x="429.73" y="-15.4" font-family="sans-serif" font-size="14.00"> &#160;Exports</text>
<g id="clust1" class="cluster">
<title>cluster_EducationPageModule</title>
<polygon fill="none" stroke="black" stroke-dasharray="1,5" points="76,-70 76,-195 420,-195 420,-70 76,-70"/>
</g>
<g id="clust4" class="cluster">
<title>cluster_EducationPageModule_imports</title>
<polygon fill="none" stroke="black" points="208,-78 208,-130 412,-130 412,-78 208,-78"/>
</g>
<g id="clust2" class="cluster">
<title>cluster_EducationPageModule_declarations</title>
<polygon fill="none" stroke="black" points="84,-78 84,-130 200,-130 200,-78 84,-78"/>
</g>
<!-- EducationPage -->
<g id="node1" class="node">
<title>EducationPage</title>
<polygon fill="#ffffb3" stroke="black" points="191.97,-122 92.03,-122 92.03,-86 191.97,-86 191.97,-122"/>
<text text-anchor="middle" x="142" y="-99.8" font-family="Times,serif" font-size="14.00">EducationPage</text>
</g>
<!-- EducationPageModule -->
<g id="node2" class="node">
<title>EducationPageModule</title>
<polygon fill="#8dd3c7" stroke="black" points="304.53,-187 301.53,-191 280.53,-191 277.53,-187 161.47,-187 161.47,-151 304.53,-151 304.53,-187"/>
<text text-anchor="middle" x="233" y="-164.8" font-family="Times,serif" font-size="14.00">EducationPageModule</text>
</g>
<!-- EducationPage&#45;&gt;EducationPageModule -->
<g id="edge1" class="edge">
<title>EducationPage&#45;&gt;EducationPageModule</title>
<path fill="none" stroke="black" d="M176.61,-122.11C176.61,-122.11 176.61,-140.99 176.61,-140.99"/>
<polygon fill="black" stroke="black" points="173.11,-140.99 176.61,-150.99 180.11,-140.99 173.11,-140.99"/>
</g>
<!-- EducationPageRoutingModule -->
<g id="node3" class="node">
<title>EducationPageRoutingModule</title>
<polygon fill="#8dd3c7" stroke="black" points="404.14,-122 401.14,-126 380.14,-126 377.14,-122 215.86,-122 215.86,-86 404.14,-86 404.14,-122"/>
<text text-anchor="middle" x="310" y="-99.8" font-family="Times,serif" font-size="14.00">EducationPageRoutingModule</text>
</g>
<!-- EducationPageRoutingModule&#45;&gt;EducationPageModule -->
<g id="edge2" class="edge">
<title>EducationPageRoutingModule&#45;&gt;EducationPageModule</title>
<path fill="none" stroke="black" d="M260.22,-122.11C260.22,-122.11 260.22,-140.99 260.22,-140.99"/>
<polygon fill="black" stroke="black" points="256.72,-140.99 260.22,-150.99 263.72,-140.99 256.72,-140.99"/>
</g>
</g>
</svg>
