<?xml version="1.0" encoding="UTF-8" standalone="no"?>
<!DOCTYPE svg PUBLIC "-//W3C//DTD SVG 1.1//EN"
 "http://www.w3.org/Graphics/SVG/1.1/DTD/svg11.dtd">
<!-- Generated by graphviz version 2.47.0 (20210316.0004)
 -->
<!-- Title: dependencies Pages: 1 -->
<svg width="1164pt" height="287pt"
 viewBox="0.00 0.00 1164.00 287.00" xmlns="http://www.w3.org/2000/svg" xmlns:xlink="http://www.w3.org/1999/xlink">
<g id="graph0" class="graph" transform="scale(1 1) rotate(0) translate(4 283)">
<title>dependencies</title>
<polygon fill="white" stroke="transparent" points="-4,4 -4,-283 1160,-283 1160,4 -4,4"/>
<text text-anchor="start" x="557.01" y="-42.4" font-family="sans-serif" font-weight="bold" font-size="14.00">Legend</text>
<polygon fill="#ffffb3" stroke="transparent" points="344,-10 344,-30 364,-30 364,-10 344,-10"/>
<text text-anchor="start" x="367.63" y="-15.4" font-family="sans-serif" font-size="14.00"> &#160;Declarations</text>
<polygon fill="#8dd3c7" stroke="transparent" points="457,-10 457,-30 477,-30 477,-10 457,-10"/>
<text text-anchor="start" x="480.73" y="-15.4" font-family="sans-serif" font-size="14.00"> &#160;Module</text>
<polygon fill="#80b1d3" stroke="transparent" points="543,-10 543,-30 563,-30 563,-10 543,-10"/>
<text text-anchor="start" x="566.78" y="-15.4" font-family="sans-serif" font-size="14.00"> &#160;Bootstrap</text>
<polygon fill="#fdb462" stroke="transparent" points="640,-10 640,-30 660,-30 660,-10 640,-10"/>
<text text-anchor="start" x="663.67" y="-15.4" font-family="sans-serif" font-size="14.00"> &#160;Providers</text>
<polygon fill="#fb8072" stroke="transparent" points="736,-10 736,-30 756,-30 756,-10 736,-10"/>
<text text-anchor="start" x="759.73" y="-15.4" font-family="sans-serif" font-size="14.00"> &#160;Exports</text>
<g id="clust1" class="cluster">
<title>cluster_AccessPageModule</title>
<polygon fill="none" stroke="black" stroke-dasharray="1,5" points="8,-70 8,-198 318,-198 318,-70 8,-70"/>
</g>
<g id="clust2" class="cluster">
<title>cluster_AccessPageModule_declarations</title>
<polygon fill="none" stroke="black" points="212,-78 212,-130 310,-130 310,-78 212,-78"/>
</g>
<g id="clust4" class="cluster">
<title>cluster_AccessPageModule_imports</title>
<polygon fill="none" stroke="black" points="16,-78 16,-130 204,-130 204,-78 16,-78"/>
</g>
<g id="clust14" class="cluster">
<title>cluster_AppModule</title>
<polygon fill="none" stroke="black" stroke-dasharray="1,5" points="326,-70 326,-271 616,-271 616,-70 326,-70"/>
</g>
<g id="clust15" class="cluster">
<title>cluster_AppModule_declarations</title>
<polygon fill="none" stroke="black" points="486,-78 486,-130 608,-130 608,-78 486,-78"/>
</g>
<g id="clust17" class="cluster">
<title>cluster_AppModule_imports</title>
<polygon fill="none" stroke="black" points="334,-78 334,-130 478,-130 478,-78 334,-78"/>
</g>
<g id="clust19" class="cluster">
<title>cluster_AppModule_bootstrap</title>
<polygon fill="none" stroke="black" points="414,-211 414,-263 538,-263 538,-211 414,-211"/>
</g>
<g id="clust27" class="cluster">
<title>cluster_GuidePageModule</title>
<polygon fill="none" stroke="black" stroke-dasharray="1,5" points="624,-70 624,-198 760,-198 760,-70 624,-70"/>
</g>
<g id="clust28" class="cluster">
<title>cluster_GuidePageModule_declarations</title>
<polygon fill="none" stroke="black" points="645,-78 645,-130 739,-130 739,-78 645,-78"/>
</g>
<g id="clust34" class="cluster">
<title>cluster_HomeAffairsPageModule</title>
<polygon fill="none" stroke="black" stroke-dasharray="1,5" points="768,-138 768,-263 1148,-263 1148,-138 768,-138"/>
</g>
<g id="clust35" class="cluster">
<title>cluster_HomeAffairsPageModule_declarations</title>
<polygon fill="none" stroke="black" points="1006,-146 1006,-198 1140,-198 1140,-146 1006,-146"/>
</g>
<g id="clust37" class="cluster">
<title>cluster_HomeAffairsPageModule_imports</title>
<polygon fill="none" stroke="black" points="776,-146 776,-198 998,-198 998,-146 776,-146"/>
</g>
<!-- AccessPage -->
<g id="node1" class="node">
<title>AccessPage</title>
<polygon fill="#ffffb3" stroke="black" points="302.35,-122 219.65,-122 219.65,-86 302.35,-86 302.35,-122"/>
<text text-anchor="middle" x="261" y="-99.8" font-family="Times,serif" font-size="14.00">AccessPage</text>
</g>
<!-- AccessPageModule -->
<g id="node2" class="node">
<title>AccessPageModule</title>
<polygon fill="#8dd3c7" stroke="black" points="241.4,-190 238.4,-194 217.4,-194 214.4,-190 114.6,-190 114.6,-154 241.4,-154 241.4,-190"/>
<text text-anchor="middle" x="178" y="-167.8" font-family="Times,serif" font-size="14.00">AccessPageModule</text>
</g>
<!-- AccessPage&#45;&gt;AccessPageModule -->
<g id="edge1" class="edge">
<title>AccessPage&#45;&gt;AccessPageModule</title>
<path fill="none" stroke="black" d="M230.39,-122.22C230.39,-122.22 230.39,-143.73 230.39,-143.73"/>
<polygon fill="black" stroke="black" points="226.89,-143.73 230.39,-153.73 233.89,-143.73 226.89,-143.73"/>
</g>
<!-- AccessPageRoutingModule -->
<g id="node3" class="node">
<title>AccessPageRoutingModule</title>
<polygon fill="#8dd3c7" stroke="black" points="195.52,-122 192.52,-126 171.52,-126 168.52,-122 24.48,-122 24.48,-86 195.52,-86 195.52,-122"/>
<text text-anchor="middle" x="110" y="-99.8" font-family="Times,serif" font-size="14.00">AccessPageRoutingModule</text>
</g>
<!-- AccessPageRoutingModule&#45;&gt;AccessPageModule -->
<g id="edge2" class="edge">
<title>AccessPageRoutingModule&#45;&gt;AccessPageModule</title>
<path fill="none" stroke="black" d="M155.28,-122.22C155.28,-122.22 155.28,-143.73 155.28,-143.73"/>
<polygon fill="black" stroke="black" points="151.78,-143.73 155.28,-153.73 158.78,-143.73 151.78,-143.73"/>
</g>
<!-- AppComponent -->
<g id="node4" class="node">
<title>AppComponent</title>
<polygon fill="#ffffb3" stroke="black" points="599.94,-122 494.06,-122 494.06,-86 599.94,-86 599.94,-122"/>
<text text-anchor="middle" x="547" y="-99.8" font-family="Times,serif" font-size="14.00">AppComponent</text>
</g>
<!-- AppModule -->
<g id="node5" class="node">
<title>AppModule</title>
<polygon fill="#8dd3c7" stroke="black" points="517.66,-190 514.66,-194 493.66,-194 490.66,-190 434.34,-190 434.34,-154 517.66,-154 517.66,-190"/>
<text text-anchor="middle" x="476" y="-167.8" font-family="Times,serif" font-size="14.00">AppModule</text>
</g>
<!-- AppComponent&#45;&gt;AppModule -->
<g id="edge3" class="edge">
<title>AppComponent&#45;&gt;AppModule</title>
<path fill="none" stroke="black" d="M506.05,-122.22C506.05,-122.22 506.05,-143.73 506.05,-143.73"/>
<polygon fill="black" stroke="black" points="502.55,-143.73 506.05,-153.73 509.55,-143.73 502.55,-143.73"/>
</g>
<!-- AppComponent  -->
<g id="node7" class="node">
<title>AppComponent </title>
<polygon fill="#80b1d3" stroke="black" points="530.44,-255 421.56,-255 421.56,-219 530.44,-219 530.44,-255"/>
<text text-anchor="middle" x="476" y="-232.8" font-family="Times,serif" font-size="14.00">AppComponent </text>
</g>
<!-- AppModule&#45;&gt;AppComponent  -->
<g id="edge5" class="edge">
<title>AppModule&#45;&gt;AppComponent </title>
<path fill="none" stroke="black" stroke-dasharray="1,5" d="M476,-190.11C476,-190.11 476,-208.99 476,-208.99"/>
<polygon fill="black" stroke="black" points="472.5,-208.99 476,-218.99 479.5,-208.99 472.5,-208.99"/>
</g>
<!-- AppRoutingModule -->
<g id="node6" class="node">
<title>AppRoutingModule</title>
<polygon fill="#8dd3c7" stroke="black" points="470.27,-122 467.27,-126 446.27,-126 443.27,-122 341.73,-122 341.73,-86 470.27,-86 470.27,-122"/>
<text text-anchor="middle" x="406" y="-99.8" font-family="Times,serif" font-size="14.00">AppRoutingModule</text>
</g>
<!-- AppRoutingModule&#45;&gt;AppModule -->
<g id="edge4" class="edge">
<title>AppRoutingModule&#45;&gt;AppModule</title>
<path fill="none" stroke="black" d="M452.28,-122.22C452.28,-122.22 452.28,-143.73 452.28,-143.73"/>
<polygon fill="black" stroke="black" points="448.78,-143.73 452.28,-153.73 455.78,-143.73 448.78,-143.73"/>
</g>
<!-- GuidePage -->
<g id="node8" class="node">
<title>GuidePage</title>
<polygon fill="#ffffb3" stroke="black" points="730.92,-122 653.08,-122 653.08,-86 730.92,-86 730.92,-122"/>
<text text-anchor="middle" x="692" y="-99.8" font-family="Times,serif" font-size="14.00">GuidePage</text>
</g>
<!-- GuidePageModule -->
<g id="node9" class="node">
<title>GuidePageModule</title>
<polygon fill="#8dd3c7" stroke="black" points="752.47,-190 749.47,-194 728.47,-194 725.47,-190 631.53,-190 631.53,-154 752.47,-154 752.47,-190"/>
<text text-anchor="middle" x="692" y="-167.8" font-family="Times,serif" font-size="14.00">GuidePageModule</text>
</g>
<!-- GuidePage&#45;&gt;GuidePageModule -->
<g id="edge6" class="edge">
<title>GuidePage&#45;&gt;GuidePageModule</title>
<path fill="none" stroke="black" d="M692,-122.22C692,-122.22 692,-143.73 692,-143.73"/>
<polygon fill="black" stroke="black" points="688.5,-143.73 692,-153.73 695.5,-143.73 688.5,-143.73"/>
</g>
<!-- HomeAffairsPageModule -->
<g id="node11" class="node">
<title>HomeAffairsPageModule</title>
<polygon fill="#8dd3c7" stroke="black" points="967.11,-255 964.11,-259 943.11,-259 940.11,-255 806.89,-255 806.89,-219 967.11,-219 967.11,-255"/>
<text text-anchor="middle" x="887" y="-232.8" font-family="Times,serif" font-size="14.00">HomeAffairsPageModule</text>
</g>
<!-- GuidePageModule&#45;&gt;HomeAffairsPageModule -->
<g id="edge8" class="edge">
<title>GuidePageModule&#45;&gt;HomeAffairsPageModule</title>
<path fill="none" stroke="black" d="M692,-190.11C692,-209.34 692,-237 692,-237 692,-237 796.84,-237 796.84,-237"/>
<polygon fill="black" stroke="black" points="796.84,-240.5 806.84,-237 796.84,-233.5 796.84,-240.5"/>
</g>
<!-- HomeAffairsPage -->
<g id="node10" class="node">
<title>HomeAffairsPage</title>
<polygon fill="#ffffb3" stroke="black" points="1131.56,-190 1014.44,-190 1014.44,-154 1131.56,-154 1131.56,-190"/>
<text text-anchor="middle" x="1073" y="-167.8" font-family="Times,serif" font-size="14.00">HomeAffairsPage</text>
</g>
<!-- HomeAffairsPage&#45;&gt;HomeAffairsPageModule -->
<g id="edge7" class="edge">
<title>HomeAffairsPage&#45;&gt;HomeAffairsPageModule</title>
<path fill="none" stroke="black" d="M1073,-190.11C1073,-209.34 1073,-237 1073,-237 1073,-237 977.23,-237 977.23,-237"/>
<polygon fill="black" stroke="black" points="977.23,-233.5 967.23,-237 977.23,-240.5 977.23,-233.5"/>
</g>
<!-- HomeAffairsPageRoutingModule -->
<g id="node12" class="node">
<title>HomeAffairsPageRoutingModule</title>
<polygon fill="#8dd3c7" stroke="black" points="989.73,-190 986.73,-194 965.73,-194 962.73,-190 784.27,-190 784.27,-154 989.73,-154 989.73,-190"/>
<text text-anchor="middle" x="887" y="-167.8" font-family="Times,serif" font-size="14.00">HomeAffairsPageRoutingModule</text>
</g>
<!-- HomeAffairsPageRoutingModule&#45;&gt;HomeAffairsPageModule -->
<g id="edge9" class="edge">
<title>HomeAffairsPageRoutingModule&#45;&gt;HomeAffairsPageModule</title>
<path fill="none" stroke="black" d="M887,-190.11C887,-190.11 887,-208.99 887,-208.99"/>
<polygon fill="black" stroke="black" points="883.5,-208.99 887,-218.99 890.5,-208.99 883.5,-208.99"/>
</g>
</g>
</svg>
