<?xml version="1.0" encoding="UTF-8" standalone="no"?>
<!DOCTYPE svg PUBLIC "-//W3C//DTD SVG 1.1//EN"
 "http://www.w3.org/Graphics/SVG/1.1/DTD/svg11.dtd">
<!-- Generated by graphviz version 2.47.0 (20210316.0004)
 -->
<!-- Title: dependencies Pages: 1 -->
<svg width="504pt" height="211pt"
 viewBox="0.00 0.00 504.00 211.00" xmlns="http://www.w3.org/2000/svg" xmlns:xlink="http://www.w3.org/1999/xlink">
<g id="graph0" class="graph" transform="scale(1 1) rotate(0) translate(4 207)">
<title>dependencies</title>
<polygon fill="white" stroke="transparent" points="-4,4 -4,-207 500,-207 500,4 -4,4"/>
<text text-anchor="start" x="227.01" y="-42.4" font-family="sans-serif" font-weight="bold" font-size="14.00">Legend</text>
<polygon fill="#ffffb3" stroke="transparent" points="14,-10 14,-30 34,-30 34,-10 14,-10"/>
<text text-anchor="start" x="37.63" y="-15.4" font-family="sans-serif" font-size="14.00"> &#160;Declarations</text>
<polygon fill="#8dd3c7" stroke="transparent" points="127,-10 127,-30 147,-30 147,-10 127,-10"/>
<text text-anchor="start" x="150.73" y="-15.4" font-family="sans-serif" font-size="14.00"> &#160;Module</text>
<polygon fill="#80b1d3" stroke="transparent" points="213,-10 213,-30 233,-30 233,-10 213,-10"/>
<text text-anchor="start" x="236.78" y="-15.4" font-family="sans-serif" font-size="14.00"> &#160;Bootstrap</text>
<polygon fill="#fdb462" stroke="transparent" points="310,-10 310,-30 330,-30 330,-10 310,-10"/>
<text text-anchor="start" x="333.67" y="-15.4" font-family="sans-serif" font-size="14.00"> &#160;Providers</text>
<polygon fill="#fb8072" stroke="transparent" points="406,-10 406,-30 426,-30 426,-10 406,-10"/>
<text text-anchor="start" x="429.73" y="-15.4" font-family="sans-serif" font-size="14.00"> &#160;Exports</text>
<g id="clust1" class="cluster">
<title>cluster_AdminPageModule</title>
<polygon fill="none" stroke="black" stroke-dasharray="1,5" points="94,-70 94,-195 402,-195 402,-70 94,-70"/>
</g>
<g id="clust2" class="cluster">
<title>cluster_AdminPageModule_declarations</title>
<polygon fill="none" stroke="black" points="296,-78 296,-130 394,-130 394,-78 296,-78"/>
</g>
<g id="clust4" class="cluster">
<title>cluster_AdminPageModule_imports</title>
<polygon fill="none" stroke="black" points="102,-78 102,-130 288,-130 288,-78 102,-78"/>
</g>
<!-- AdminPage -->
<g id="node1" class="node">
<title>AdminPage</title>
<polygon fill="#ffffb3" stroke="black" points="386.1,-122 303.9,-122 303.9,-86 386.1,-86 386.1,-122"/>
<text text-anchor="middle" x="345" y="-99.8" font-family="Times,serif" font-size="14.00">AdminPage</text>
</g>
<!-- AdminPageModule -->
<g id="node2" class="node">
<title>AdminPageModule</title>
<polygon fill="#8dd3c7" stroke="black" points="325.65,-187 322.65,-191 301.65,-191 298.65,-187 200.35,-187 200.35,-151 325.65,-151 325.65,-187"/>
<text text-anchor="middle" x="263" y="-164.8" font-family="Times,serif" font-size="14.00">AdminPageModule</text>
</g>
<!-- AdminPage&#45;&gt;AdminPageModule -->
<g id="edge1" class="edge">
<title>AdminPage&#45;&gt;AdminPageModule</title>
<path fill="none" stroke="black" d="M314.89,-122.11C314.89,-122.11 314.89,-140.99 314.89,-140.99"/>
<polygon fill="black" stroke="black" points="311.39,-140.99 314.89,-150.99 318.39,-140.99 311.39,-140.99"/>
</g>
<!-- AdminPageRoutingModule -->
<g id="node3" class="node">
<title>AdminPageRoutingModule</title>
<polygon fill="#8dd3c7" stroke="black" points="280.27,-122 277.27,-126 256.27,-126 253.27,-122 109.73,-122 109.73,-86 280.27,-86 280.27,-122"/>
<text text-anchor="middle" x="195" y="-99.8" font-family="Times,serif" font-size="14.00">AdminPageRoutingModule</text>
</g>
<!-- AdminPageRoutingModule&#45;&gt;AdminPageModule -->
<g id="edge2" class="edge">
<title>AdminPageRoutingModule&#45;&gt;AdminPageModule</title>
<path fill="none" stroke="black" d="M240.28,-122.11C240.28,-122.11 240.28,-140.99 240.28,-140.99"/>
<polygon fill="black" stroke="black" points="236.78,-140.99 240.28,-150.99 243.78,-140.99 236.78,-140.99"/>
</g>
</g>
</svg>
