<?xml version="1.0" encoding="UTF-8" standalone="no"?>
<!DOCTYPE svg PUBLIC "-//W3C//DTD SVG 1.1//EN"
 "http://www.w3.org/Graphics/SVG/1.1/DTD/svg11.dtd">
<!-- Generated by graphviz version 2.47.0 (20210316.0004)
 -->
<!-- Title: dependencies Pages: 1 -->
<svg width="504pt" height="211pt"
 viewBox="0.00 0.00 504.00 211.00" xmlns="http://www.w3.org/2000/svg" xmlns:xlink="http://www.w3.org/1999/xlink">
<g id="graph0" class="graph" transform="scale(1 1) rotate(0) translate(4 207)">
<title>dependencies</title>
<polygon fill="white" stroke="transparent" points="-4,4 -4,-207 500,-207 500,4 -4,4"/>
<text text-anchor="start" x="227.01" y="-42.4" font-family="sans-serif" font-weight="bold" font-size="14.00">Legend</text>
<polygon fill="#ffffb3" stroke="transparent" points="14,-10 14,-30 34,-30 34,-10 14,-10"/>
<text text-anchor="start" x="37.63" y="-15.4" font-family="sans-serif" font-size="14.00"> &#160;Declarations</text>
<polygon fill="#8dd3c7" stroke="transparent" points="127,-10 127,-30 147,-30 147,-10 127,-10"/>
<text text-anchor="start" x="150.73" y="-15.4" font-family="sans-serif" font-size="14.00"> &#160;Module</text>
<polygon fill="#80b1d3" stroke="transparent" points="213,-10 213,-30 233,-30 233,-10 213,-10"/>
<text text-anchor="start" x="236.78" y="-15.4" font-family="sans-serif" font-size="14.00"> &#160;Bootstrap</text>
<polygon fill="#fdb462" stroke="transparent" points="310,-10 310,-30 330,-30 330,-10 310,-10"/>
<text text-anchor="start" x="333.67" y="-15.4" font-family="sans-serif" font-size="14.00"> &#160;Providers</text>
<polygon fill="#fb8072" stroke="transparent" points="406,-10 406,-30 426,-30 426,-10 406,-10"/>
<text text-anchor="start" x="429.73" y="-15.4" font-family="sans-serif" font-size="14.00"> &#160;Exports</text>
<g id="clust1" class="cluster">
<title>cluster_HomeAffairsPageModule</title>
<polygon fill="none" stroke="black" stroke-dasharray="1,5" points="58,-70 58,-195 438,-195 438,-70 58,-70"/>
</g>
<g id="clust2" class="cluster">
<title>cluster_HomeAffairsPageModule_declarations</title>
<polygon fill="none" stroke="black" points="296,-78 296,-130 430,-130 430,-78 296,-78"/>
</g>
<g id="clust4" class="cluster">
<title>cluster_HomeAffairsPageModule_imports</title>
<polygon fill="none" stroke="black" points="66,-78 66,-130 288,-130 288,-78 66,-78"/>
</g>
<!-- HomeAffairsPage -->
<g id="node1" class="node">
<title>HomeAffairsPage</title>
<polygon fill="#ffffb3" stroke="black" points="421.56,-122 304.44,-122 304.44,-86 421.56,-86 421.56,-122"/>
<text text-anchor="middle" x="363" y="-99.8" font-family="Times,serif" font-size="14.00">HomeAffairsPage</text>
</g>
<!-- HomeAffairsPageModule -->
<g id="node2" class="node">
<title>HomeAffairsPageModule</title>
<polygon fill="#8dd3c7" stroke="black" points="343.11,-187 340.11,-191 319.11,-191 316.11,-187 182.89,-187 182.89,-151 343.11,-151 343.11,-187"/>
<text text-anchor="middle" x="263" y="-164.8" font-family="Times,serif" font-size="14.00">HomeAffairsPageModule</text>
</g>
<!-- HomeAffairsPage&#45;&gt;HomeAffairsPageModule -->
<g id="edge1" class="edge">
<title>HomeAffairsPage&#45;&gt;HomeAffairsPageModule</title>
<path fill="none" stroke="black" d="M323.89,-122.11C323.89,-122.11 323.89,-140.99 323.89,-140.99"/>
<polygon fill="black" stroke="black" points="320.39,-140.99 323.89,-150.99 327.39,-140.99 320.39,-140.99"/>
</g>
<!-- HomeAffairsPageRoutingModule -->
<g id="node3" class="node">
<title>HomeAffairsPageRoutingModule</title>
<polygon fill="#8dd3c7" stroke="black" points="279.73,-122 276.73,-126 255.73,-126 252.73,-122 74.27,-122 74.27,-86 279.73,-86 279.73,-122"/>
<text text-anchor="middle" x="177" y="-99.8" font-family="Times,serif" font-size="14.00">HomeAffairsPageRoutingModule</text>
</g>
<!-- HomeAffairsPageRoutingModule&#45;&gt;HomeAffairsPageModule -->
<g id="edge2" class="edge">
<title>HomeAffairsPageRoutingModule&#45;&gt;HomeAffairsPageModule</title>
<path fill="none" stroke="black" d="M231.28,-122.11C231.28,-122.11 231.28,-140.99 231.28,-140.99"/>
<polygon fill="black" stroke="black" points="227.78,-140.99 231.28,-150.99 234.78,-140.99 227.78,-140.99"/>
</g>
</g>
</svg>
