<?xml version="1.0" encoding="UTF-8" standalone="no"?>
<!DOCTYPE svg PUBLIC "-//W3C//DTD SVG 1.1//EN"
 "http://www.w3.org/Graphics/SVG/1.1/DTD/svg11.dtd">
<!-- Generated by graphviz version 2.47.0 (20210316.0004)
 -->
<!-- Title: dependencies Pages: 1 -->
<svg width="504pt" height="211pt"
 viewBox="0.00 0.00 504.00 211.00" xmlns="http://www.w3.org/2000/svg" xmlns:xlink="http://www.w3.org/1999/xlink">
<g id="graph0" class="graph" transform="scale(1 1) rotate(0) translate(4 207)">
<title>dependencies</title>
<polygon fill="white" stroke="transparent" points="-4,4 -4,-207 500,-207 500,4 -4,4"/>
<text text-anchor="start" x="227.01" y="-42.4" font-family="sans-serif" font-weight="bold" font-size="14.00">Legend</text>
<polygon fill="#ffffb3" stroke="transparent" points="14,-10 14,-30 34,-30 34,-10 14,-10"/>
<text text-anchor="start" x="37.63" y="-15.4" font-family="sans-serif" font-size="14.00"> &#160;Declarations</text>
<polygon fill="#8dd3c7" stroke="transparent" points="127,-10 127,-30 147,-30 147,-10 127,-10"/>
<text text-anchor="start" x="150.73" y="-15.4" font-family="sans-serif" font-size="14.00"> &#160;Module</text>
<polygon fill="#80b1d3" stroke="transparent" points="213,-10 213,-30 233,-30 233,-10 213,-10"/>
<text text-anchor="start" x="236.78" y="-15.4" font-family="sans-serif" font-size="14.00"> &#160;Bootstrap</text>
<polygon fill="#fdb462" stroke="transparent" points="310,-10 310,-30 330,-30 330,-10 310,-10"/>
<text text-anchor="start" x="333.67" y="-15.4" font-family="sans-serif" font-size="14.00"> &#160;Providers</text>
<polygon fill="#fb8072" stroke="transparent" points="406,-10 406,-30 426,-30 426,-10 406,-10"/>
<text text-anchor="start" x="429.73" y="-15.4" font-family="sans-serif" font-size="14.00"> &#160;Exports</text>
<g id="clust1" class="cluster">
<title>cluster_AccessPageModule</title>
<polygon fill="none" stroke="black" stroke-dasharray="1,5" points="93,-70 93,-195 403,-195 403,-70 93,-70"/>
</g>
<g id="clust2" class="cluster">
<title>cluster_AccessPageModule_declarations</title>
<polygon fill="none" stroke="black" points="297,-78 297,-130 395,-130 395,-78 297,-78"/>
</g>
<g id="clust4" class="cluster">
<title>cluster_AccessPageModule_imports</title>
<polygon fill="none" stroke="black" points="101,-78 101,-130 289,-130 289,-78 101,-78"/>
</g>
<!-- AccessPage -->
<g id="node1" class="node">
<title>AccessPage</title>
<polygon fill="#ffffb3" stroke="black" points="387.35,-122 304.65,-122 304.65,-86 387.35,-86 387.35,-122"/>
<text text-anchor="middle" x="346" y="-99.8" font-family="Times,serif" font-size="14.00">AccessPage</text>
</g>
<!-- AccessPageModule -->
<g id="node2" class="node">
<title>AccessPageModule</title>
<polygon fill="#8dd3c7" stroke="black" points="326.4,-187 323.4,-191 302.4,-191 299.4,-187 199.6,-187 199.6,-151 326.4,-151 326.4,-187"/>
<text text-anchor="middle" x="263" y="-164.8" font-family="Times,serif" font-size="14.00">AccessPageModule</text>
</g>
<!-- AccessPage&#45;&gt;AccessPageModule -->
<g id="edge1" class="edge">
<title>AccessPage&#45;&gt;AccessPageModule</title>
<path fill="none" stroke="black" d="M315.39,-122.11C315.39,-122.11 315.39,-140.99 315.39,-140.99"/>
<polygon fill="black" stroke="black" points="311.89,-140.99 315.39,-150.99 318.89,-140.99 311.89,-140.99"/>
</g>
<!-- AccessPageRoutingModule -->
<g id="node3" class="node">
<title>AccessPageRoutingModule</title>
<polygon fill="#8dd3c7" stroke="black" points="280.52,-122 277.52,-126 256.52,-126 253.52,-122 109.48,-122 109.48,-86 280.52,-86 280.52,-122"/>
<text text-anchor="middle" x="195" y="-99.8" font-family="Times,serif" font-size="14.00">AccessPageRoutingModule</text>
</g>
<!-- AccessPageRoutingModule&#45;&gt;AccessPageModule -->
<g id="edge2" class="edge">
<title>AccessPageRoutingModule&#45;&gt;AccessPageModule</title>
<path fill="none" stroke="black" d="M240.28,-122.11C240.28,-122.11 240.28,-140.99 240.28,-140.99"/>
<polygon fill="black" stroke="black" points="236.78,-140.99 240.28,-150.99 243.78,-140.99 236.78,-140.99"/>
</g>
</g>
</svg>
