<?xml version="1.0" encoding="UTF-8" standalone="no"?>
<!DOCTYPE svg PUBLIC "-//W3C//DTD SVG 1.1//EN"
 "http://www.w3.org/Graphics/SVG/1.1/DTD/svg11.dtd">
<!-- Generated by graphviz version 2.46.1 (20210213.1702)
 -->
<!-- Title: dependencies Pages: 1 -->
<svg width="524pt" height="211pt"
 viewBox="0.00 0.00 524.00 211.00" xmlns="http://www.w3.org/2000/svg" xmlns:xlink="http://www.w3.org/1999/xlink">
<g id="graph0" class="graph" transform="scale(1 1) rotate(0) translate(4 207)">
<title>dependencies</title>
<polygon fill="white" stroke="transparent" points="-4,4 -4,-207 520,-207 520,4 -4,4"/>
<text text-anchor="start" x="237.01" y="-42.4" font-family="sans-serif" font-weight="bold" font-size="14.00">Legend</text>
<polygon fill="#ffffb3" stroke="transparent" points="24,-10 24,-30 44,-30 44,-10 24,-10"/>
<text text-anchor="start" x="47.63" y="-15.4" font-family="sans-serif" font-size="14.00"> &#160;Declarations</text>
<polygon fill="#8dd3c7" stroke="transparent" points="137,-10 137,-30 157,-30 157,-10 137,-10"/>
<text text-anchor="start" x="160.73" y="-15.4" font-family="sans-serif" font-size="14.00"> &#160;Module</text>
<polygon fill="#80b1d3" stroke="transparent" points="223,-10 223,-30 243,-30 243,-10 223,-10"/>
<text text-anchor="start" x="246.78" y="-15.4" font-family="sans-serif" font-size="14.00"> &#160;Bootstrap</text>
<polygon fill="#fdb462" stroke="transparent" points="320,-10 320,-30 340,-30 340,-10 320,-10"/>
<text text-anchor="start" x="343.67" y="-15.4" font-family="sans-serif" font-size="14.00"> &#160;Providers</text>
<polygon fill="#fb8072" stroke="transparent" points="416,-10 416,-30 436,-30 436,-10 416,-10"/>
<text text-anchor="start" x="439.73" y="-15.4" font-family="sans-serif" font-size="14.00"> &#160;Exports</text>
<g id="clust1" class="cluster">
<title>cluster_PageUnderConstructionPageModule</title>
<polygon fill="none" stroke="black" stroke-dasharray="1,5" points="8,-70 8,-195 508,-195 508,-70 8,-70"/>
</g>
<g id="clust2" class="cluster">
<title>cluster_PageUnderConstructionPageModule_declarations</title>
<polygon fill="none" stroke="black" points="306,-78 306,-130 500,-130 500,-78 306,-78"/>
</g>
<g id="clust4" class="cluster">
<title>cluster_PageUnderConstructionPageModule_imports</title>
<polygon fill="none" stroke="black" points="16,-78 16,-130 298,-130 298,-78 16,-78"/>
</g>
<!-- PageUnderConstructionPage -->
<g id="node1" class="node">
<title>PageUnderConstructionPage</title>
<polygon fill="#ffffb3" stroke="black" points="491.73,-122 314.27,-122 314.27,-86 491.73,-86 491.73,-122"/>
<text text-anchor="middle" x="403" y="-99.8" font-family="Times,serif" font-size="14.00">PageUnderConstructionPage</text>
</g>
<!-- PageUnderConstructionPageModule -->
<g id="node2" class="node">
<title>PageUnderConstructionPageModule</title>
<polygon fill="#8dd3c7" stroke="black" points="383.78,-187 380.78,-191 359.78,-191 356.78,-187 162.22,-187 162.22,-151 383.78,-151 383.78,-187"/>
<text text-anchor="middle" x="273" y="-164.8" font-family="Times,serif" font-size="14.00">PageUnderConstructionPageModule</text>
</g>
<!-- PageUnderConstructionPage&#45;&gt;PageUnderConstructionPageModule -->
<g id="edge1" class="edge">
<title>PageUnderConstructionPage&#45;&gt;PageUnderConstructionPageModule</title>
<path fill="none" stroke="black" d="M348.89,-122.11C348.89,-122.11 348.89,-140.99 348.89,-140.99"/>
<polygon fill="black" stroke="black" points="345.39,-140.99 348.89,-150.99 352.39,-140.99 345.39,-140.99"/>
</g>
<!-- PageUnderConstructionPageRoutingModule -->
<g id="node3" class="node">
<title>PageUnderConstructionPageRoutingModule</title>
<polygon fill="#8dd3c7" stroke="black" points="290.4,-122 287.4,-126 266.4,-126 263.4,-122 23.6,-122 23.6,-86 290.4,-86 290.4,-122"/>
<text text-anchor="middle" x="157" y="-99.8" font-family="Times,serif" font-size="14.00">PageUnderConstructionPageRoutingModule</text>
</g>
<!-- PageUnderConstructionPageRoutingModule&#45;&gt;PageUnderConstructionPageModule -->
<g id="edge2" class="edge">
<title>PageUnderConstructionPageRoutingModule&#45;&gt;PageUnderConstructionPageModule</title>
<path fill="none" stroke="black" d="M226.28,-122.11C226.28,-122.11 226.28,-140.99 226.28,-140.99"/>
<polygon fill="black" stroke="black" points="222.78,-140.99 226.28,-150.99 229.78,-140.99 222.78,-140.99"/>
</g>
</g>
</svg>
