<?xml version="1.0" encoding="UTF-8" standalone="no"?>
<!DOCTYPE svg PUBLIC "-//W3C//DTD SVG 1.1//EN"
 "http://www.w3.org/Graphics/SVG/1.1/DTD/svg11.dtd">
<!-- Generated by graphviz version 2.46.1 (20210213.1702)
 -->
<!-- Title: dependencies Pages: 1 -->
<svg width="504pt" height="211pt"
 viewBox="0.00 0.00 504.00 211.00" xmlns="http://www.w3.org/2000/svg" xmlns:xlink="http://www.w3.org/1999/xlink">
<g id="graph0" class="graph" transform="scale(1 1) rotate(0) translate(4 207)">
<title>dependencies</title>
<polygon fill="white" stroke="transparent" points="-4,4 -4,-207 500,-207 500,4 -4,4"/>
<text text-anchor="start" x="227.01" y="-42.4" font-family="sans-serif" font-weight="bold" font-size="14.00">Legend</text>
<polygon fill="#ffffb3" stroke="transparent" points="14,-10 14,-30 34,-30 34,-10 14,-10"/>
<text text-anchor="start" x="37.63" y="-15.4" font-family="sans-serif" font-size="14.00"> &#160;Declarations</text>
<polygon fill="#8dd3c7" stroke="transparent" points="127,-10 127,-30 147,-30 147,-10 127,-10"/>
<text text-anchor="start" x="150.73" y="-15.4" font-family="sans-serif" font-size="14.00"> &#160;Module</text>
<polygon fill="#80b1d3" stroke="transparent" points="213,-10 213,-30 233,-30 233,-10 213,-10"/>
<text text-anchor="start" x="236.78" y="-15.4" font-family="sans-serif" font-size="14.00"> &#160;Bootstrap</text>
<polygon fill="#fdb462" stroke="transparent" points="310,-10 310,-30 330,-30 330,-10 310,-10"/>
<text text-anchor="start" x="333.67" y="-15.4" font-family="sans-serif" font-size="14.00"> &#160;Providers</text>
<polygon fill="#fb8072" stroke="transparent" points="406,-10 406,-30 426,-30 426,-10 406,-10"/>
<text text-anchor="start" x="429.73" y="-15.4" font-family="sans-serif" font-size="14.00"> &#160;Exports</text>
<g id="clust1" class="cluster">
<title>cluster_RegistrationsPageModule</title>
<polygon fill="none" stroke="black" stroke-dasharray="1,5" points="58,-70 58,-195 438,-195 438,-70 58,-70"/>
</g>
<g id="clust2" class="cluster">
<title>cluster_RegistrationsPageModule_declarations</title>
<polygon fill="none" stroke="black" points="296,-78 296,-130 430,-130 430,-78 296,-78"/>
</g>
<g id="clust4" class="cluster">
<title>cluster_RegistrationsPageModule_imports</title>
<polygon fill="none" stroke="black" points="66,-78 66,-130 288,-130 288,-78 66,-78"/>
</g>
<!-- RegistrationsPage -->
<g id="node1" class="node">
<title>RegistrationsPage</title>
<polygon fill="#ffffb3" stroke="black" points="421.59,-122 304.41,-122 304.41,-86 421.59,-86 421.59,-122"/>
<text text-anchor="middle" x="363" y="-99.8" font-family="Times,serif" font-size="14.00">RegistrationsPage</text>
</g>
<!-- RegistrationsPageModule -->
<g id="node2" class="node">
<title>RegistrationsPageModule</title>
<polygon fill="#8dd3c7" stroke="black" points="343.14,-187 340.14,-191 319.14,-191 316.14,-187 182.86,-187 182.86,-151 343.14,-151 343.14,-187"/>
<text text-anchor="middle" x="263" y="-164.8" font-family="Times,serif" font-size="14.00">RegistrationsPageModule</text>
</g>
<!-- RegistrationsPage&#45;&gt;RegistrationsPageModule -->
<g id="edge1" class="edge">
<title>RegistrationsPage&#45;&gt;RegistrationsPageModule</title>
<path fill="none" stroke="black" d="M323.89,-122.11C323.89,-122.11 323.89,-140.99 323.89,-140.99"/>
<polygon fill="black" stroke="black" points="320.39,-140.99 323.89,-150.99 327.39,-140.99 320.39,-140.99"/>
</g>
<!-- RegistrationsPageRoutingModule -->
<g id="node3" class="node">
<title>RegistrationsPageRoutingModule</title>
<polygon fill="#8dd3c7" stroke="black" points="279.76,-122 276.76,-126 255.76,-126 252.76,-122 74.24,-122 74.24,-86 279.76,-86 279.76,-122"/>
<text text-anchor="middle" x="177" y="-99.8" font-family="Times,serif" font-size="14.00">RegistrationsPageRoutingModule</text>
</g>
<!-- RegistrationsPageRoutingModule&#45;&gt;RegistrationsPageModule -->
<g id="edge2" class="edge">
<title>RegistrationsPageRoutingModule&#45;&gt;RegistrationsPageModule</title>
<path fill="none" stroke="black" d="M231.28,-122.11C231.28,-122.11 231.28,-140.99 231.28,-140.99"/>
<polygon fill="black" stroke="black" points="227.78,-140.99 231.28,-150.99 234.78,-140.99 227.78,-140.99"/>
</g>
</g>
</svg>
