<?xml version="1.0" encoding="UTF-8" standalone="no"?>
<!DOCTYPE svg PUBLIC "-//W3C//DTD SVG 1.1//EN"
 "http://www.w3.org/Graphics/SVG/1.1/DTD/svg11.dtd">
<!-- Generated by graphviz version 2.47.0 (20210316.0004)
 -->
<!-- Title: dependencies Pages: 1 -->
<svg width="504pt" height="211pt"
 viewBox="0.00 0.00 504.00 211.00" xmlns="http://www.w3.org/2000/svg" xmlns:xlink="http://www.w3.org/1999/xlink">
<g id="graph0" class="graph" transform="scale(1 1) rotate(0) translate(4 207)">
<title>dependencies</title>
<polygon fill="white" stroke="transparent" points="-4,4 -4,-207 500,-207 500,4 -4,4"/>
<text text-anchor="start" x="227.01" y="-42.4" font-family="sans-serif" font-weight="bold" font-size="14.00">Legend</text>
<polygon fill="#ffffb3" stroke="transparent" points="14,-10 14,-30 34,-30 34,-10 14,-10"/>
<text text-anchor="start" x="37.63" y="-15.4" font-family="sans-serif" font-size="14.00"> &#160;Declarations</text>
<polygon fill="#8dd3c7" stroke="transparent" points="127,-10 127,-30 147,-30 147,-10 127,-10"/>
<text text-anchor="start" x="150.73" y="-15.4" font-family="sans-serif" font-size="14.00"> &#160;Module</text>
<polygon fill="#80b1d3" stroke="transparent" points="213,-10 213,-30 233,-30 233,-10 213,-10"/>
<text text-anchor="start" x="236.78" y="-15.4" font-family="sans-serif" font-size="14.00"> &#160;Bootstrap</text>
<polygon fill="#fdb462" stroke="transparent" points="310,-10 310,-30 330,-30 330,-10 310,-10"/>
<text text-anchor="start" x="333.67" y="-15.4" font-family="sans-serif" font-size="14.00"> &#160;Providers</text>
<polygon fill="#fb8072" stroke="transparent" points="406,-10 406,-30 426,-30 426,-10 406,-10"/>
<text text-anchor="start" x="429.73" y="-15.4" font-family="sans-serif" font-size="14.00"> &#160;Exports</text>
<g id="clust1" class="cluster">
<title>cluster_EnglishPageModule</title>
<polygon fill="none" stroke="black" stroke-dasharray="1,5" points="90,-70 90,-195 406,-195 406,-70 90,-70"/>
</g>
<g id="clust4" class="cluster">
<title>cluster_EnglishPageModule_imports</title>
<polygon fill="none" stroke="black" points="208,-78 208,-130 398,-130 398,-78 208,-78"/>
</g>
<g id="clust2" class="cluster">
<title>cluster_EnglishPageModule_declarations</title>
<polygon fill="none" stroke="black" points="98,-78 98,-130 200,-130 200,-78 98,-78"/>
</g>
<!-- EnglishPage -->
<g id="node1" class="node">
<title>EnglishPage</title>
<polygon fill="#ffffb3" stroke="black" points="191.99,-122 106.01,-122 106.01,-86 191.99,-86 191.99,-122"/>
<text text-anchor="middle" x="149" y="-99.8" font-family="Times,serif" font-size="14.00">EnglishPage</text>
</g>
<!-- EnglishPageModule -->
<g id="node2" class="node">
<title>EnglishPageModule</title>
<polygon fill="#8dd3c7" stroke="black" points="297.54,-187 294.54,-191 273.54,-191 270.54,-187 168.46,-187 168.46,-151 297.54,-151 297.54,-187"/>
<text text-anchor="middle" x="233" y="-164.8" font-family="Times,serif" font-size="14.00">EnglishPageModule</text>
</g>
<!-- EnglishPage&#45;&gt;EnglishPageModule -->
<g id="edge1" class="edge">
<title>EnglishPage&#45;&gt;EnglishPageModule</title>
<path fill="none" stroke="black" d="M180.11,-122.11C180.11,-122.11 180.11,-140.99 180.11,-140.99"/>
<polygon fill="black" stroke="black" points="176.61,-140.99 180.11,-150.99 183.61,-140.99 176.61,-140.99"/>
</g>
<!-- EnglishPageRoutingModule -->
<g id="node3" class="node">
<title>EnglishPageRoutingModule</title>
<polygon fill="#8dd3c7" stroke="black" points="390.16,-122 387.16,-126 366.16,-126 363.16,-122 215.84,-122 215.84,-86 390.16,-86 390.16,-122"/>
<text text-anchor="middle" x="303" y="-99.8" font-family="Times,serif" font-size="14.00">EnglishPageRoutingModule</text>
</g>
<!-- EnglishPageRoutingModule&#45;&gt;EnglishPageModule -->
<g id="edge2" class="edge">
<title>EnglishPageRoutingModule&#45;&gt;EnglishPageModule</title>
<path fill="none" stroke="black" d="M256.72,-122.11C256.72,-122.11 256.72,-140.99 256.72,-140.99"/>
<polygon fill="black" stroke="black" points="253.22,-140.99 256.72,-150.99 260.22,-140.99 253.22,-140.99"/>
</g>
</g>
</svg>
